<svg width="81" height="80" viewBox="0 0 81 80" fill="none" xmlns="http://www.w3.org/2000/svg">
<rect x="1.25" y="0.75" width="78.5" height="78.5" rx="39.25" stroke="#003964" stroke-width="1.5"/>
<path d="M48.6 40.3623C48.6 41.4223 48.31 42.3623 47.73 43.1823C47.17 43.9823 46.36 44.6123 45.3 45.0723C44.26 45.5123 43.05 45.7323 41.67 45.7323C40.29 45.7323 39.07 45.5123 38.01 45.0723C36.95 44.6123 36.13 43.9723 35.55 43.1523C34.97 42.3323 34.68 41.3923 34.68 40.3323C34.68 37.9123 36.25 36.1523 39.39 35.0523C38.19 34.4923 37.26 33.8223 36.6 33.0423C35.94 32.2623 35.61 31.3123 35.61 30.1923C35.61 28.6523 36.18 27.4523 37.32 26.5923C38.48 25.7123 39.93 25.2723 41.67 25.2723C43.37 25.2723 44.79 25.7123 45.93 26.5923C47.09 27.4523 47.67 28.6523 47.67 30.1923C47.67 32.3123 46.41 33.9223 43.89 35.0223C47.03 36.2023 48.6 37.9823 48.6 40.3623ZM37.92 30.2823C37.92 31.1223 38.22 31.8123 38.82 32.3523C39.44 32.8923 40.38 33.4223 41.64 33.9423C42.9 33.4423 43.83 32.9223 44.43 32.3823C45.05 31.8423 45.36 31.1423 45.36 30.2823C45.36 29.3423 45.01 28.6123 44.31 28.0923C43.63 27.5523 42.75 27.2823 41.67 27.2823C40.57 27.2823 39.67 27.5523 38.97 28.0923C38.27 28.6123 37.92 29.3423 37.92 30.2823ZM41.67 43.7223C43.13 43.7223 44.25 43.4123 45.03 42.7923C45.83 42.1523 46.23 41.3123 46.23 40.2723C46.23 39.2323 45.84 38.4223 45.06 37.8423C44.3 37.2423 43.17 36.6723 41.67 36.1323C40.15 36.6723 39 37.2423 38.22 37.8423C37.44 38.4423 37.05 39.2523 37.05 40.2723C37.05 41.3123 37.45 42.1523 38.25 42.7923C39.07 43.4123 40.21 43.7223 41.67 43.7223Z" fill="#DF2222"/>
<g clip-path="url(#clip0_2004_438)">
<path d="M57.3499 45.0366L57.3495 45.0366L57.0848 44.9924L56.4271 44.8826L56.1639 45.4953C56.1221 45.5926 56.0813 45.6862 56.0399 45.7774L55.4705 47.0318L56.847 46.9781C58.2272 46.9242 59.5811 47.3147 60.74 48.1173C60.74 48.1174 60.74 48.1174 60.74 48.1174L62.3052 49.2016L61.2211 50.7667C60.243 52.1787 58.7775 53.1228 57.0877 53.4297C56.699 53.5003 56.31 53.5351 55.9246 53.5351C54.6323 53.5351 53.3713 53.1444 52.2821 52.3899L51.7186 51.9996L51.2268 51.6589L50.7402 52.007C50.6483 52.0727 50.5566 52.1374 50.4651 52.2009L49.1546 53.1105L50.6405 53.6909C52.1207 54.2692 53.3972 55.3735 54.1605 56.9013L54.1605 56.9013L55.0326 58.6467L53.2872 59.5188C52.3371 59.9935 51.3276 60.2179 50.3334 60.2179C47.9306 60.2179 45.6176 58.9104 44.4399 56.6537L44.0248 55.8583L43.253 56.3157C43.1146 56.3977 42.9794 56.4796 42.8474 56.5612L42.003 57.0836L42.6493 57.8374C43.4746 58.7999 44.0448 59.9349 44.2049 61.3788H42.9629C42.8117 60.2768 42.3586 59.3556 41.6373 58.5387L41.0002 57.8171L40.363 58.5386C39.6416 59.3556 39.1885 60.2768 39.0374 61.3788H37.7954C37.9555 59.9349 38.5257 58.7999 39.351 57.8374L39.997 57.084L39.1533 56.5615C39.021 56.4796 38.8857 56.3976 38.7473 56.3156L37.9755 55.8582L37.5604 56.6536C36.3828 58.91 34.0693 60.2178 31.6669 60.2178C30.6722 60.2178 29.6633 59.9936 28.713 59.5187L28.713 59.5187L26.9676 58.6466L27.8396 56.9012L27.0792 56.5213L27.8396 56.9012C28.5819 55.4154 29.8211 54.287 31.3555 53.6883L32.8423 53.1081L31.5312 52.1981C31.4412 52.1357 31.3509 52.0719 31.2602 52.007L30.7735 51.6588L30.2816 51.9995L29.7181 52.3898L29.8154 52.5302L29.7181 52.3898C28.629 53.1442 27.3677 53.535 26.0756 53.535C25.6904 53.535 25.3016 53.5002 24.9125 53.4296C23.2227 53.1228 21.7572 52.1787 20.7792 50.7668L19.695 49.2015L21.2603 48.1173L20.7763 47.4185L21.2603 48.1173C22.4191 47.3146 23.7731 46.9242 25.1533 46.9781L26.5311 47.0319L25.9601 45.7768C25.9189 45.6861 25.8782 45.5928 25.8363 45.4952L25.573 44.8822L24.915 44.9924L24.6499 45.0367L24.6499 45.0367C24.2918 45.0967 23.9336 45.1263 23.5791 45.1263C22.2628 45.1263 20.9816 44.7197 19.8843 43.9371L19.8842 43.9371C18.4932 42.9452 17.5741 41.4748 17.2919 39.7897L16.9787 37.9191L18.849 37.6059C18.8491 37.6059 18.8491 37.6059 18.8491 37.6059C20.3932 37.3476 21.9013 37.6692 23.1551 38.4122L24.4353 39.1708L24.4384 37.6827C24.4388 37.498 24.4397 37.3129 24.4412 37.1267L24.4475 36.3731L23.7 36.2766C20.5704 35.8729 18.329 33.0164 18.6934 29.8735L18.8964 28.1226L20.6472 28.3256C20.6472 28.3256 20.6472 28.3256 20.6472 28.3256C21.9717 28.4792 23.1715 29.0686 24.0923 30.0028L25.0135 30.9374L25.4897 29.7146C25.5254 29.623 25.563 29.5309 25.6024 29.4374L25.8705 28.8003L25.3014 28.4079C22.9612 26.7945 22.28 23.5966 23.8003 21.1619L23.8003 21.1619L24.6835 19.7475L26.0978 20.6308L26.0978 20.6308C27.3129 21.3895 28.1572 22.5723 28.4799 23.968L28.4799 23.9681C28.8026 25.3638 28.5632 26.7971 27.8044 28.0124L27.8044 28.0124L27.1363 29.0824L27.1196 29.1092L27.1049 29.1371C25.8739 31.4789 25.6693 34.132 25.6693 37.9081C25.6693 42.3367 26.8189 45.8713 29.2645 48.6081L29.8983 48.0418L29.2645 48.6081C31.3938 50.991 34.1735 52.4554 36.7123 53.7929L36.7709 53.8237C38.0955 54.5217 39.3806 55.2 40.5182 55.9827L41 56.3142L41.4818 55.9827C42.6193 55.1999 43.9044 54.5216 45.2289 53.8238L44.8328 53.0717L45.229 53.8238L45.2879 53.7927C47.8266 52.4553 50.6062 50.9909 52.7354 48.6081C55.181 45.8713 56.3306 42.3367 56.3306 37.9081C56.3306 34.1315 56.1259 31.4784 54.8945 29.1362L54.8798 29.1083L54.8631 29.0815L54.1955 28.0123L54.1955 28.0122C53.4367 26.7972 53.1973 25.3638 53.52 23.968L53.5201 23.968C53.8427 22.5723 54.6869 21.3895 55.9021 20.6307L55.9022 20.6307L57.3164 19.7474L58.1996 21.1618L58.9206 20.7116L58.1996 21.1618C59.7203 23.597 59.0383 26.7959 56.6965 28.4089L56.1285 28.8001L56.3943 29.4364C56.4335 29.5304 56.4714 29.6247 56.508 29.7191L56.9824 30.9465L57.9061 30.0094C58.8005 29.1022 59.994 28.483 61.3527 28.3254L63.1035 28.1224L63.3065 29.8733C63.6709 33.0161 61.4297 35.8724 58.3004 36.2764L57.5533 36.3728L57.5592 37.126C57.5607 37.3106 57.5615 37.4959 57.5619 37.682L57.5649 39.17L58.8451 38.4116C60.0988 37.6688 61.6068 37.3473 63.1507 37.6057L65.0213 37.919L64.708 39.7895L65.5463 39.9299L64.708 39.7896C64.4258 41.4747 63.5067 42.9451 62.1156 43.937L62.1155 43.937C61.0185 44.7194 59.7369 45.1262 58.4208 45.1262C58.0661 45.1262 57.7083 45.0966 57.3499 45.0366Z" stroke="#DF2222" stroke-width="1.7"/>
</g>
<defs>
<clipPath id="clip0_2004_438">
<rect width="50" height="50" fill="white" transform="translate(16 15.4023)"/>
</clipPath>
</defs>
</svg>
