<svg width="18" height="18" viewBox="0 0 18 18" fill="none" xmlns="http://www.w3.org/2000/svg">
<path fill-rule="evenodd" clip-rule="evenodd" d="M16.0859 7.97123H1.91094V13.1141C1.91094 14.2502 2.81756 15.1712 3.93594 15.1712H14.0609C15.1793 15.1712 16.0859 14.2502 16.0859 13.1141V7.97123ZM16.0859 6.94266H1.91094V4.88552C1.91094 3.74939 2.81756 2.82838 3.93594 2.82838H14.0609C15.1793 2.82838 16.0859 3.74939 16.0859 4.88552V6.94266ZM17.0984 4.88552C17.0984 3.18133 15.7385 1.7998 14.0609 1.7998H3.93594C2.25837 1.7998 0.898438 3.18133 0.898438 4.88552V13.1141C0.898438 14.8183 2.25837 16.1998 3.93594 16.1998H14.0609C15.7385 16.1998 17.0984 14.8183 17.0984 13.1141V4.88552Z" fill="#003964"/>
<path d="M5.96094 12.3105C5.96094 12.8786 5.50763 13.3391 4.94844 13.3391C4.38925 13.3391 3.93594 12.8786 3.93594 12.3105C3.93594 11.7425 4.38925 11.2819 4.94844 11.2819C5.50763 11.2819 5.96094 11.7425 5.96094 12.3105Z" fill="#003964"/>
<path d="M7.98594 11.7962H13.0484V12.8248H7.98594V11.7962Z" fill="#003964"/>
</svg>
