<svg width="13" height="16" viewBox="0 0 13 16" fill="none" xmlns="http://www.w3.org/2000/svg">
<path d="M12.2712 3.37396C11.7875 2.45392 11.0717 1.66595 10.1898 1.08249C9.30783 0.499032 8.28797 0.138809 7.22396 0.0349392C6.74264 -0.0116464 6.25769 -0.0116464 5.77637 0.0349392C4.71239 0.138877 3.69255 0.499089 2.81056 1.08248C1.92857 1.66587 1.21271 2.45372 0.728766 3.37365C0.119891 4.54743 -0.115292 5.86877 0.0528381 7.17123C0.220969 8.4737 0.784893 9.69905 1.67358 10.6929L6.00718 15.7754C6.06703 15.8456 6.14226 15.9022 6.22748 15.941C6.31269 15.9799 6.40576 16 6.50001 16C6.59425 16 6.68733 15.9799 6.77254 15.941C6.85775 15.9022 6.93298 15.8456 6.99283 15.7754L11.3264 10.6929C12.2151 9.6991 12.779 8.47381 12.9472 7.17139C13.1153 5.86898 12.8801 4.54769 12.2712 3.37396ZM10.3408 9.91108L6.50001 14.4157L2.65949 9.91096C1.93948 9.09972 1.48017 8.10366 1.33771 7.0446C1.19526 5.98554 1.37584 4.90939 1.85738 3.94776C2.24451 3.20812 2.81816 2.5742 3.5256 2.10428C4.23305 1.63436 5.05159 1.34352 5.906 1.25847C6.10338 1.23936 6.30164 1.22995 6.50001 1.23029C6.69861 1.23012 6.89709 1.23986 7.09465 1.25946C7.94898 1.3444 8.76746 1.63515 9.47486 2.10498C10.1823 2.5748 10.7559 3.20863 11.143 3.94819C11.6244 4.90978 11.805 5.98587 11.6625 7.04487C11.5201 8.10387 11.0608 9.09987 10.3408 9.91108Z" fill="#DF2222"/>
<path d="M6.49986 3.07651C5.86898 3.07651 5.25226 3.25697 4.7277 3.59507C4.20314 3.93318 3.7943 4.41374 3.55287 4.97598C3.31144 5.53823 3.24827 6.15691 3.37135 6.75378C3.49443 7.35066 3.79823 7.89893 4.24433 8.32925C4.69043 8.75958 5.2588 9.05263 5.87756 9.17136C6.49632 9.29008 7.13769 9.22915 7.72054 8.99626C8.3034 8.76337 8.80158 8.36898 9.15208 7.86298C9.50258 7.35697 9.68966 6.76206 9.68966 6.15349C9.68866 5.33772 9.35228 4.55564 8.75429 3.9788C8.1563 3.40196 7.34554 3.07747 6.49986 3.07651ZM6.49986 7.99969C6.12133 7.99969 5.7513 7.89141 5.43657 7.68855C5.12183 7.48568 4.87652 7.19735 4.73167 6.86C4.58681 6.52265 4.54891 6.15145 4.62275 5.79332C4.6966 5.43519 4.87888 5.10623 5.14654 4.84804C5.4142 4.58984 5.75522 4.41401 6.12648 4.34278C6.49774 4.27154 6.88256 4.3081 7.23227 4.44784C7.58199 4.58757 7.88089 4.8242 8.09119 5.1278C8.30149 5.43141 8.41374 5.78835 8.41374 6.15349C8.41318 6.64297 8.21136 7.11224 7.85256 7.45836C7.49376 7.80447 7.00728 7.99915 6.49986 7.99969Z" fill="#DF2222"/>
</svg>
