<svg width="41" height="41" viewBox="0 0 41 41" fill="none" xmlns="http://www.w3.org/2000/svg">
<g clip-path="url(#clip0_2036_15305)">
<path d="M20.5 40.5C31.5457 40.5 40.5 31.5457 40.5 20.5C40.5 9.4543 31.5457 0.5 20.5 0.5C9.4543 0.5 0.5 9.4543 0.5 20.5C0.5 31.5457 9.4543 40.5 20.5 40.5Z" fill="#039BE5"/>
<path d="M9.65308 20.0665L28.9364 12.6315C29.8314 12.3082 30.6131 12.8499 30.3231 14.2032L30.3247 14.2015L27.0414 29.6699C26.7981 30.7665 26.1464 31.0332 25.2348 30.5165L20.2347 26.8315L17.8231 29.1549C17.5564 29.4215 17.3314 29.6465 16.8147 29.6465L17.1697 24.5582L26.4364 16.1865C26.8398 15.8315 26.3464 15.6315 25.8148 15.9849L14.3631 23.1949L9.42641 21.6549C8.35475 21.3149 8.33141 20.5832 9.65308 20.0665Z" fill="white"/>
</g>
<defs>
<clipPath id="clip0_2036_15305">
<rect width="40" height="40" fill="white" transform="translate(0.5 0.5)"/>
</clipPath>
</defs>
</svg>
