<svg width="50" height="50" viewBox="0 0 50 50" fill="none" xmlns="http://www.w3.org/2000/svg">
<path d="M29.6838 31.6205V33.7181H38.006V31.6205H36.3869L30.8781 17.6787L26.2331 25.8189L21.5928 17.6787L16.0793 31.6205H14.4648V33.7181H22.7871V31.6205H21.5409L22.7541 28.1433L26.2331 33.8787L29.7168 28.1433L30.93 31.6205H29.6838Z" fill="#DF2222"/>
<circle cx="25" cy="25" r="25" fill="white"/>
<g clip-path="url(#clip0_2004_17263)">
<path d="M31.3108 27.1337C30.9398 26.7491 30.4922 26.5435 30.0179 26.5435C29.5474 26.5435 29.096 26.7453 28.7096 27.1299L27.5008 28.3295C27.4014 28.2762 27.3019 28.2267 27.2063 28.1772C27.0686 28.1086 26.9385 28.0439 26.8276 27.9754C25.6953 27.2594 24.6663 26.3264 23.6794 25.1192C23.2012 24.5175 22.8799 24.011 22.6466 23.4969C22.9602 23.2112 23.251 22.9142 23.534 22.6286C23.6411 22.522 23.7482 22.4115 23.8553 22.3049C24.6587 21.5052 24.6587 20.4693 23.8553 19.6696L22.811 18.6299C22.6925 18.5119 22.5701 18.39 22.4553 18.2681C22.2258 18.032 21.9848 17.7883 21.7361 17.5598C21.3651 17.1942 20.9214 17 20.4547 17C19.988 17 19.5366 17.1942 19.1541 17.5598C19.1502 17.5636 19.1502 17.5636 19.1464 17.5674L17.8458 18.8737C17.3562 19.3611 17.0769 19.9552 17.0157 20.6445C16.9239 21.7565 17.2529 22.7923 17.5054 23.4702C18.1251 25.1344 19.0508 26.6767 20.4317 28.3295C22.1072 30.3212 24.1231 31.894 26.4259 33.0022C27.3058 33.4173 28.4801 33.9086 29.7922 33.9924C29.8725 33.9962 29.9567 34 30.0332 34C30.9168 34 31.6589 33.6839 32.2404 33.0556C32.2442 33.0479 32.2518 33.0441 32.2557 33.0365C32.4546 32.7966 32.6841 32.5795 32.9251 32.3472C33.0896 32.1911 33.2579 32.0273 33.4224 31.856C33.8011 31.4637 34 31.0067 34 30.5383C34 30.0661 33.7973 29.6129 33.4109 29.2321L31.3108 27.1337Z" fill="#DF2222"/>
</g>
<defs>
<clipPath id="clip0_2004_17263">
<rect width="17" height="17" fill="white" transform="translate(17 17)"/>
</clipPath>
</defs>
</svg>
