<svg width="51" height="50" viewBox="0 0 51 50" fill="none" xmlns="http://www.w3.org/2000/svg">
<path d="M30.1832 31.6214V33.7191H38.5055V31.6214H36.8864L31.3775 17.6797L26.7325 25.8199L22.0923 17.6797L16.5787 31.6214H14.9643V33.7191H23.2866V31.6214H22.0403L23.2535 28.1443L26.7325 33.8797L30.2163 28.1443L31.4294 31.6214H30.1832Z" fill="#DF2222"/>
<circle cx="25.5" cy="25" r="24" fill="white" stroke="#CBD8E0" stroke-width="2"/>
<g clip-path="url(#clip0_2014_7256)">
<path d="M28.9648 13.1386C28.8548 13.0227 28.7039 12.9531 28.5475 12.9531H19.1851C17.4575 12.9531 16.0315 14.3735 16.0315 16.1009V33.8052C16.0315 35.5328 17.4575 36.9532 19.1851 36.9532H31.8923C33.6199 36.9532 35.0459 35.5328 35.0459 33.8052V19.7473C35.0459 19.5966 34.9764 19.4517 34.8778 19.3415L28.9648 13.1386ZM29.1329 14.9995L33.0924 19.156H30.5185C29.7533 19.156 29.1329 18.5415 29.1329 17.7763V14.9995ZM31.8923 35.7937H19.1851C18.1011 35.7937 17.1909 34.8952 17.1909 33.8052V16.1009C17.1909 15.0169 18.0953 14.1126 19.1851 14.1126H27.9735V17.7763C27.9735 19.1849 29.1098 20.3154 30.5185 20.3154H33.8865V33.8052C33.8865 34.8952 32.9821 35.7937 31.8923 35.7937Z" fill="#DF2222"/>
<path d="M30.3098 31.793H20.7678C20.449 31.793 20.1881 32.0537 20.1881 32.3727C20.1881 32.6915 20.449 32.9524 20.7678 32.9524H30.3157C30.6345 32.9524 30.8954 32.6915 30.8954 32.3727C30.8954 32.0537 30.6345 31.793 30.3098 31.793Z" fill="#DF2222"/>
<path d="M22.5706 25.5578L24.959 22.9896V29.3201C24.959 29.6389 25.2199 29.8998 25.5387 29.8998C25.8577 29.8998 26.1184 29.6389 26.1184 29.3201V22.9896L28.5068 25.5578C28.6227 25.6794 28.7736 25.7433 28.93 25.7433C29.0691 25.7433 29.2142 25.6911 29.3242 25.5867C29.5562 25.3665 29.5736 25.0012 29.3533 24.7694L25.9562 21.123C25.8459 21.0071 25.6952 20.9375 25.533 20.9375C25.3706 20.9375 25.2199 21.0071 25.1099 21.123L21.7127 24.7694C21.4924 25.0012 21.5098 25.3721 21.7416 25.5867C21.9852 25.807 22.3503 25.7896 22.5706 25.5578Z" fill="#DF2222"/>
</g>
<defs>
<clipPath id="clip0_2014_7256">
<rect width="24" height="24" fill="white" transform="translate(13.5 13)"/>
</clipPath>
</defs>
</svg>
