<svg width="188" height="49" viewBox="0 0 188 49" fill="none" xmlns="http://www.w3.org/2000/svg">
<g clip-path="url(#clip0_2004_1578)">
<path d="M39.5569 48.6178L3.95034 48.6178C1.82205 48.6178 0.132935 46.8952 0.132935 44.8011L0.132935 4.6414C0.132935 2.54729 1.85583 0.824707 3.95034 0.824707L39.5231 0.824707C41.6514 0.824707 43.3405 2.54729 43.3405 4.6414L43.3405 44.7673C43.3743 46.8952 41.6514 48.6178 39.5569 48.6178Z" fill="#DF2222"/>
<path d="M22.0595 10.5182L20.1001 20.7524C20.6744 20.6173 21.2825 20.5497 21.8906 20.5497C26.6201 20.5497 28.816 23.9949 28.816 28.0142C28.816 30.6488 27.9714 32.8104 26.5188 34.533C24.4243 36.9649 21.0461 38.0119 17.1273 38.0119C15.2693 38.0119 13.0396 37.8768 11.9248 37.6742L16.249 15.2469L11.4181 15.2469L12.364 10.4507L22.0595 10.4507L22.0595 10.5182ZM17.634 33.8913C17.9719 33.9588 18.3773 33.9588 18.8164 33.9588C21.823 33.9588 23.4784 31.1554 23.4784 28.4871C23.4784 26.4943 22.9041 24.5691 20.6407 24.5691C20.1677 24.5691 19.6948 24.6366 19.3907 24.738L17.634 33.8913Z" fill="white"/>
<path d="M30.8751 34.8708C30.8751 32.9794 32.3615 31.0879 34.1182 31.0879C36.1452 31.0879 37.1586 32.4727 37.1586 34.3304C37.1586 36.6947 35.5709 38.1471 33.7466 38.1471C31.8886 38.1471 30.8751 36.7623 30.8751 34.8708Z" fill="white"/>
<path d="M54.8753 28.344L54.1586 31.977L51.1329 31.977L54.6364 16.0234L58.3788 16.0234L61.4842 31.977L58.4584 31.977L57.7816 28.344L54.8753 28.344ZM57.5029 25.9352L56.9853 22.5786C56.8261 21.5914 56.5872 20.0118 56.4678 18.9456L56.3881 18.9456C56.2289 20.0118 55.99 21.6309 55.8308 22.5786L55.2336 25.9352L57.5029 25.9352Z" fill="white"/>
<path d="M63.2774 16.2602C64.2329 16.0628 65.5069 15.9443 66.8207 15.9443C68.3336 15.9443 69.7669 16.1418 70.9214 17.0895C71.7973 17.8003 72.1556 18.8665 72.1556 19.9722C72.1556 21.3938 71.3992 22.7759 69.8465 23.4472L69.8465 23.5262C71.7177 24.0396 72.6732 25.5796 72.6732 27.3566C72.6732 28.6598 72.2353 29.6865 71.4788 30.4763C70.5233 31.503 68.891 32.0953 66.1837 32.0953C64.9893 32.0953 63.994 32.0163 63.2774 31.8979L63.2774 16.2602V16.2602ZM66.3828 22.5785L67.0596 22.5785C68.1744 22.5785 69.0502 21.6307 69.0502 20.3276C69.0502 19.1824 68.4929 18.2742 67.2189 18.2742C66.8605 18.2742 66.5819 18.3137 66.3828 18.3532L66.3828 22.5785ZM66.3828 29.6865C66.5819 29.726 66.8207 29.726 67.0596 29.726C68.3336 29.726 69.3687 28.9362 69.3687 27.3172C69.3687 25.6981 68.254 24.8688 67.0198 24.8688L66.343 24.8688L66.343 29.6865L66.3828 29.6865Z" fill="white"/>
<path d="M76.1354 18.9061L73.3087 18.9061L73.3087 16.0234L82.1471 16.0234L82.1471 18.9061L79.2806 18.9061L79.2806 32.0165L76.1354 32.0165L76.1354 18.9061V18.9061Z" fill="white"/>
<path d="M92.7764 23.7235C92.7764 29.7258 90.6265 32.1741 87.5609 32.1741C83.8982 32.1741 82.4649 28.3437 82.4649 23.9604C82.4649 19.6166 84.2167 15.8257 87.7998 15.8257C91.7014 15.8257 92.7764 20.0905 92.7764 23.7235ZM85.7295 23.9999C85.7295 27.6329 86.4064 29.4889 87.6804 29.4889C89.034 29.4889 89.5117 27.1195 89.5117 23.8814C89.5117 21.0777 89.0738 18.5504 87.6405 18.5504C86.4462 18.5504 85.7295 20.5644 85.7295 23.9999Z" fill="white"/>
<path d="M97.8313 16.0234L97.8313 22.9735L98.0701 22.9735L100.658 16.0234L104.082 16.0234L100.419 23.4079C102.051 24.0397 102.609 25.5008 103.087 27.4752C103.405 29.0548 103.724 30.5554 104.161 32.0165L101.056 32.0165C100.658 30.8713 100.419 29.5682 100.18 28.3045C99.7821 26.4485 99.3441 25.2244 98.0701 25.2244L97.8313 25.2244L97.8313 32.0165L94.7657 32.0165L94.7657 16.0234L97.8313 16.0234Z" fill="white"/>
<path d="M108.543 28.344L107.827 31.977L104.801 31.977L108.304 16.0234L112.047 16.0234L115.192 31.977L112.166 31.977L111.489 28.344L108.543 28.344ZM111.131 25.9352L110.613 22.5786C110.454 21.5914 110.215 20.0118 110.096 18.9456L110.016 18.9456C109.857 20.0118 109.618 21.6309 109.459 22.5786L108.862 25.9352L111.131 25.9352Z" fill="white"/>
<path d="M126.378 16.0234L126.378 31.977L123.233 31.977L123.233 18.7087L120.048 18.7087L120.048 31.977L116.902 31.977L116.902 16.0234L126.378 16.0234Z" fill="white"/>
<path d="M131.911 16.0234L131.911 19.5379C131.911 22.4601 131.712 25.2243 131.593 26.8828L131.633 26.8828C132.07 25.5007 132.907 23.4078 133.384 22.1837L135.733 15.9839L138.56 15.9839L138.56 31.9374L135.813 31.9374L135.813 28.3439C135.813 25.1453 135.932 22.776 136.012 21.1569L135.972 21.1569C135.574 22.5785 134.857 24.5135 134.34 25.8561L131.991 31.9374L129.164 31.9374L129.164 16.0234L131.911 16.0234Z" fill="white"/>
<path d="M143.139 18.9061L140.313 18.9061L140.313 16.0234L149.151 16.0234L149.151 18.9061L146.284 18.9061L146.284 32.0165L143.139 32.0165L143.139 18.9061Z" fill="white"/>
<path d="M152.258 28.344L151.541 31.977L148.516 31.977L152.019 16.0234L155.762 16.0234L158.907 31.977L155.841 31.977L155.164 28.344L152.258 28.344ZM154.886 25.9352L154.368 22.5786C154.209 21.5914 153.97 20.0118 153.851 18.9456L153.771 18.9456C153.612 20.0118 153.373 21.6309 153.214 22.5786L152.616 25.9352L154.886 25.9352Z" fill="white"/>
<path d="M170.052 16.0234L170.052 31.977L166.907 31.977L166.907 18.7087L164.558 18.7087L164.558 22.934C164.558 26.6065 164.319 29.8841 162.288 31.4636C161.691 31.9375 160.935 32.2534 160.099 32.2534L159.422 29.6076C159.82 29.5287 160.218 29.3312 160.497 29.0548C161.452 28.0676 161.651 26.2906 161.651 23.2104L161.651 16.0234L170.052 16.0234Z" fill="white"/>
<path d="M179.569 12.8247L179.569 19.9722C179.967 19.9327 180.524 19.8537 181.082 19.8537C184.705 19.8537 187.133 22.1836 187.133 25.6981C187.133 27.5541 186.536 29.0152 185.541 30.0419C184.227 31.424 182.117 32.0953 179.33 32.0953C177.897 32.0953 176.702 32.0163 175.827 31.8584L175.827 16.0233L171.766 16.0233L171.766 12.8247L179.569 12.8247ZM179.609 29.0547C179.848 29.0942 180.166 29.1337 180.445 29.1337C182.276 29.1337 183.272 27.712 183.272 26.014C183.272 24.158 182.276 22.8944 180.485 22.8944C180.206 22.8944 179.887 22.9339 179.609 22.9734L179.609 29.0547V29.0547Z" fill="white"/>
</g>
<defs>
<clipPath id="clip0_2004_1578">
<rect width="187" height="48" fill="white" transform="translate(0.132935 0.824707)"/>
</clipPath>
</defs>
</svg>
