<svg width="25" height="32" viewBox="0 0 25 32" fill="none" xmlns="http://www.w3.org/2000/svg">
<path d="M12.5 16.0314C14.2188 16.0314 15.625 14.6135 15.625 12.8806C15.625 11.1476 14.2188 9.72976 12.5 9.72976C10.7812 9.72976 9.375 11.1476 9.375 12.8806C9.375 14.6135 10.7812 16.0314 12.5 16.0314ZM12.5 0.277344C19.0625 0.277344 25 5.35014 25 13.1957C25 18.2054 21.1719 24.0974 13.5312 30.8874C12.9375 31.4073 12.0469 31.4073 11.4531 30.8874C3.82812 24.0974 0 18.2054 0 13.1957C0 5.35014 5.9375 0.277344 12.5 0.277344Z" fill="#003964"/>
</svg>
