<svg width="56" height="67" viewBox="0 0 56 67" fill="none" xmlns="http://www.w3.org/2000/svg">
<path d="M27.5984 1.5957C40.8284 1.5957 52.7984 11.9069 52.7984 27.854C52.7984 38.0371 45.0809 50.0134 29.6774 63.8151C28.4804 64.8718 26.6849 64.8718 25.4879 63.8151C10.1159 50.0134 2.39844 38.0371 2.39844 27.854C2.39844 11.9069 14.3684 1.5957 27.5984 1.5957Z" fill="#DF2222"/>
<path d="M31.4956 33.2431V35.3645H39.9692V33.2431H38.3207L32.7117 19.1436L27.9822 27.3759L23.2576 19.1436L17.6438 33.2431H16V35.3645H24.4736V33.2431H23.2047L24.4399 29.7266L27.9822 35.527L31.5293 29.7266L32.7645 33.2431H31.4956Z" fill="white"/>
</svg>
