<svg width="64" height="50" viewBox="0 0 64 50" fill="none" xmlns="http://www.w3.org/2000/svg">
<path d="M39.0562 50L39.0562 46.0271C44.7063 43.0556 48.7512 39.9548 51.191 36.7248C53.6308 33.4948 54.8507 29.9742 54.8507 26.1628C54.8507 23.9018 54.5297 22.3514 53.8876 21.5116C53.3098 20.6072 52.6035 20.155 51.7689 20.155C50.9342 20.155 49.8106 20.3811 48.3981 20.8333C46.9856 21.3501 45.7014 21.6085 44.5457 21.6085C41.9133 21.6085 39.634 20.6072 37.7079 18.6047C35.7175 16.6667 34.7223 14.2765 34.7223 11.4341C34.7223 8.33333 35.9101 5.65246 38.2857 3.39147C40.6613 1.19509 43.6148 0.096903 47.1461 0.0969033C51.4478 0.0969037 55.3323 1.97029 58.7994 5.71706C62.2665 9.46383 64 14.0827 64 19.5736C64 26.0336 61.8812 32.0413 57.6437 37.5969C53.3419 43.2171 47.1461 47.3514 39.0562 50ZM4.62278 49.7093L4.62278 46.0271C11.1075 42.2804 15.3772 38.9212 17.4318 35.9496C19.4864 32.978 20.5136 29.4897 20.5136 25.4845C20.5136 23.6757 20.1605 22.3191 19.4542 21.4147C18.748 20.5103 18.0096 20.0581 17.2392 20.0581C16.5329 20.0581 15.4735 20.3165 14.061 20.8333C12.6485 21.3501 11.2359 21.6085 9.82343 21.6085C7.191 21.6085 4.91171 20.6395 2.98555 18.7015C0.995177 16.8282 -4.52611e-06 14.5026 -4.28327e-06 11.7248C-4.00655e-06 8.55943 1.252 5.81395 3.75602 3.48837C6.19582 1.16279 9.21348 -9.74893e-07 12.809 -6.60564e-07C17.0465 -2.90104e-07 20.8668 1.84109 24.2697 5.52326C27.6725 9.20543 29.374 13.792 29.374 19.2829C29.374 26.0659 27.2231 32.2351 22.9213 37.7907C18.6196 43.4108 12.5201 47.3837 4.62278 49.7093Z" fill="#F5F9FC"/>
</svg>
