<svg width="40" height="40" viewBox="0 0 40 40" fill="none" xmlns="http://www.w3.org/2000/svg">
<circle cx="20" cy="20" r="20" fill="#003964"/>
<g clip-path="url(#clip0_108_24636)">
<path fill-rule="evenodd" clip-rule="evenodd" d="M27.2954 12.6751C25.3659 10.7432 22.7997 9.67887 20.0658 9.67773C14.4325 9.67773 9.84776 14.2623 9.84549 19.8972C9.84474 21.6985 10.3153 23.4569 11.2097 25.0067L9.75977 30.3027L15.1777 28.8815C16.6706 29.6958 18.3513 30.125 20.0617 30.1255H20.066C25.6987 30.1255 30.2839 25.5405 30.2861 19.9054C30.2872 17.1744 29.2251 14.6068 27.2954 12.6751ZM20.0658 28.3995H20.0623C18.5381 28.3988 17.0432 27.9892 15.7388 27.2154L15.4287 27.0312L12.2136 27.8747L13.0718 24.74L12.8698 24.4186C12.0194 23.0661 11.5704 21.5029 11.5711 19.8978C11.5729 15.2143 15.3837 11.4039 20.0692 11.4039C22.3382 11.4046 24.4711 12.2893 26.0748 13.895C27.6786 15.5007 28.5613 17.6349 28.5606 19.9048C28.5586 24.5887 24.748 28.3995 20.0658 28.3995ZM24.7254 22.0374C24.4701 21.9095 23.2145 21.2919 22.9803 21.2065C22.7464 21.1213 22.576 21.0789 22.4059 21.3344C22.2356 21.59 21.7463 22.1653 21.5972 22.3356C21.4482 22.506 21.2994 22.5274 21.044 22.3995C20.7886 22.2718 19.9658 22.002 18.9903 21.132C18.2312 20.4549 17.7187 19.6186 17.5697 19.3631C17.4209 19.1073 17.5684 18.9824 17.6817 18.8419C17.9582 18.4986 18.235 18.1387 18.3201 17.9684C18.4053 17.7979 18.3626 17.6488 18.2987 17.521C18.235 17.3932 17.7243 16.1363 17.5115 15.6248C17.3041 15.127 17.0937 15.1943 16.9368 15.1865C16.7881 15.179 16.6177 15.1775 16.4474 15.1775C16.2772 15.1775 16.0005 15.2413 15.7664 15.4971C15.5323 15.7528 14.8727 16.3705 14.8727 17.6275C14.8727 18.8845 15.7878 20.0987 15.9154 20.2692C16.0431 20.4396 17.7162 23.019 20.2778 24.125C20.8871 24.3884 21.3627 24.5454 21.7337 24.6631C22.3455 24.8574 22.902 24.83 23.3421 24.7643C23.8328 24.6909 24.8529 24.1465 25.0659 23.55C25.2786 22.9534 25.2786 22.4422 25.2147 22.3356C25.151 22.2291 24.9806 22.1653 24.7254 22.0374Z" fill="white"/>
</g>
<defs>
<clipPath id="clip0_108_24636">
<rect width="22" height="22" fill="white" transform="translate(9 9)"/>
</clipPath>
</defs>
</svg>
