<svg width="40" height="40" viewBox="0 0 40 40" fill="none" xmlns="http://www.w3.org/2000/svg">
<g clip-path="url(#clip0_2004_1535)">
<path d="M20 40C31.0457 40 40 31.0457 40 20C40 8.9543 31.0457 0 20 0C8.9543 0 0 8.9543 0 20C0 31.0457 8.9543 40 20 40Z" fill="#039BE5"/>
<path d="M9.15308 19.5665L28.4364 12.1315C29.3314 11.8082 30.1131 12.3499 29.8231 13.7032L29.8247 13.7015L26.5414 29.1699C26.2981 30.2665 25.6464 30.5332 24.7348 30.0165L19.7347 26.3315L17.3231 28.6549C17.0564 28.9215 16.8314 29.1465 16.3147 29.1465L16.6697 24.0582L25.9364 15.6865C26.3398 15.3315 25.8464 15.1315 25.3148 15.4849L13.8631 22.6949L8.92641 21.1549C7.85475 20.8149 7.83141 20.0832 9.15308 19.5665Z" fill="white"/>
</g>
<defs>
<clipPath id="clip0_2004_1535">
<rect width="40" height="40" fill="white"/>
</clipPath>
</defs>
</svg>
