<svg width="40" height="40" viewBox="0 0 40 40" fill="none" xmlns="http://www.w3.org/2000/svg">
<g clip-path="url(#clip0_2004_1530)">
<path d="M20.0034 0.39209H19.9936C9.18229 0.39209 0.390625 9.18621 0.390625 19.9999C0.390625 24.2891 1.77298 28.2646 4.12347 31.4926L1.67984 38.7769L9.21661 36.3676C12.3171 38.4215 16.0156 39.6078 20.0034 39.6078C30.8146 39.6078 39.6063 30.8112 39.6063 19.9999C39.6063 9.18866 30.8146 0.39209 20.0034 0.39209ZM31.4127 28.0808C30.9396 29.4166 29.0622 30.5244 27.5646 30.848C26.5401 31.0661 25.2019 31.2401 20.697 29.3725C14.9347 26.9852 11.224 21.1298 10.9347 20.7499C10.6578 20.37 8.60631 17.6494 8.60631 14.8357C8.60631 12.022 10.0352 10.6519 10.6112 10.0637C11.0843 9.58081 11.8661 9.36023 12.6161 9.36023C12.8588 9.36023 13.0769 9.37248 13.273 9.38229C13.849 9.40679 14.1382 9.44111 14.5181 10.3504C14.9911 11.4901 16.1431 14.3039 16.2803 14.5931C16.42 14.8823 16.5597 15.2744 16.3637 15.6543C16.1798 16.0465 16.0181 16.2205 15.7289 16.5539C15.4396 16.8872 15.1651 17.1421 14.8759 17.4999C14.6112 17.8112 14.3122 18.1445 14.6455 18.7205C14.9789 19.2842 16.1308 21.1641 17.8269 22.674C20.0156 24.6225 21.7901 25.245 22.4249 25.5097C22.898 25.7058 23.4617 25.6592 23.8073 25.2916C24.246 24.8186 24.7877 24.0342 25.3392 23.2622C25.7313 22.7083 26.2264 22.6396 26.746 22.8357C27.2754 23.0195 30.0769 24.4043 30.6529 24.6911C31.2289 24.9803 31.6088 25.1176 31.7485 25.3602C31.8857 25.6029 31.8857 26.7426 31.4127 28.0808Z" fill="#4CAF50"/>
</g>
<defs>
<clipPath id="clip0_2004_1530">
<rect width="40" height="40" fill="white"/>
</clipPath>
</defs>
</svg>
