<svg width="61" height="60" viewBox="0 0 61 60" fill="none" xmlns="http://www.w3.org/2000/svg">
<rect x="1.5" y="1" width="58" height="58" rx="29" fill="#F5F9FC" stroke="#003964" stroke-width="2"/>
<g clip-path="url(#clip0_186_33681)">
<path d="M25.4062 27.5007H29.4061C29.7513 27.5007 30.0311 27.2209 30.0311 26.8757C30.0311 26.5305 29.7513 26.2507 29.4061 26.2507H25.4062C25.0611 26.2507 24.7812 26.5305 24.7812 26.8757C24.7812 27.2209 25.0611 27.5007 25.4062 27.5007Z" fill="#003964" stroke="#003964" stroke-width="0.5"/>
<path d="M33.156 30.3124H25.4062C25.0611 30.3124 24.7812 30.5922 24.7812 30.9374C24.7812 31.2825 25.0611 31.5623 25.4062 31.5623H33.1559C33.5011 31.5623 33.7809 31.2825 33.7809 30.9374C33.7809 30.5922 33.5011 30.3124 33.156 30.3124Z" fill="#003964" stroke="#003964" stroke-width="0.5"/>
<path d="M33.156 34.3744H25.4062C25.0611 34.3744 24.7812 34.6542 24.7812 34.9994C24.7812 35.3445 25.0611 35.6243 25.4062 35.6243H33.1559C33.5011 35.6243 33.7809 35.3445 33.7809 34.9994C33.7809 34.6542 33.5011 34.3744 33.156 34.3744Z" fill="#003964" stroke="#003964" stroke-width="0.5"/>
<path d="M42.093 39.0625V19.3757C42.1452 18.1169 41.1672 17.0541 39.9084 17.0019C39.8554 16.9996 39.8023 16.9993 39.7493 17.0008H26.3122C24.9373 17.0008 23.6561 18.0007 23.6561 19.3757V20.4381H22.5624C21.1326 20.4695 19.9716 21.6032 19.9062 23.0318V42.7499C19.9469 43.1309 20.184 43.4628 20.5312 43.6249C20.8906 43.7836 21.3103 43.7096 21.5937 43.4373L23.4998 41.7186L25.781 43.7498C25.9512 43.9077 26.1739 43.9967 26.406 43.9998C26.6369 43.9912 26.8578 43.9029 27.031 43.7498L29.2809 41.7186L31.5308 43.7498C31.8867 44.0681 32.4249 44.0681 32.7808 43.7498L35.0619 41.7186L36.9369 43.4373C37.1639 43.7167 37.5574 43.7954 37.8743 43.6249C38.1848 43.4466 38.3667 43.1071 38.3431 42.7499V38.3125L38.718 38.0313L40.6242 39.75C40.8005 39.9181 41.037 40.0082 41.2804 40C41.3884 40.0097 41.4969 39.988 41.5929 39.9375C41.9214 39.774 42.1188 39.4285 42.093 39.0625ZM37.0931 42.0624L35.6244 40.625C35.2935 40.2867 34.7536 40.2729 34.4057 40.5937L32.1245 42.6249L29.9058 40.5937C29.5405 40.3013 29.0212 40.3013 28.6559 40.5937L26.406 42.6249L24.1248 40.5937C23.7307 40.2708 23.1597 40.284 22.7811 40.625L21.1562 42.0624V23.0319C21.2187 22.2933 21.8217 21.7171 22.5623 21.6882H35.9994C36.6869 21.6882 37.0931 22.3444 37.0931 23.0319V42.0624ZM40.843 19.3757V38.3751L39.2806 36.9376C39.0306 36.6876 38.9681 36.6251 38.3431 36.7189V23.0319C38.3431 21.6569 37.3744 20.4382 35.9994 20.4382H24.906V19.3757C24.906 18.6882 25.6247 18.2507 26.3122 18.2507H39.7493C40.3176 18.2138 40.8083 18.6445 40.8453 19.2128C40.8489 19.2671 40.8481 19.3216 40.843 19.3757Z" fill="#003964" stroke="#003964" stroke-width="0.5"/>
</g>
<defs>
<clipPath id="clip0_186_33681">
<rect width="27" height="27" fill="white" transform="translate(17.5 17)"/>
</clipPath>
</defs>
</svg>
