<svg width="60" height="60" viewBox="0 0 60 60" fill="none" xmlns="http://www.w3.org/2000/svg">
<rect x="1" y="1" width="58" height="58" rx="29" fill="#F5F9FC" stroke="#003964" stroke-width="2"/>
<g clip-path="url(#clip0_219_17622)">
<path d="M24.9062 27.5007H28.9061C29.2513 27.5007 29.5311 27.2209 29.5311 26.8757C29.5311 26.5305 29.2513 26.2507 28.9061 26.2507H24.9062C24.5611 26.2507 24.2812 26.5305 24.2812 26.8757C24.2812 27.2209 24.5611 27.5007 24.9062 27.5007Z" fill="#003964" stroke="#003964" stroke-width="0.5"/>
<path d="M32.656 30.3124H24.9062C24.5611 30.3124 24.2812 30.5922 24.2812 30.9374C24.2812 31.2825 24.5611 31.5623 24.9062 31.5623H32.6559C33.0011 31.5623 33.2809 31.2825 33.2809 30.9374C33.2809 30.5922 33.0011 30.3124 32.656 30.3124Z" fill="#003964" stroke="#003964" stroke-width="0.5"/>
<path d="M32.656 34.3744H24.9062C24.5611 34.3744 24.2812 34.6542 24.2812 34.9994C24.2812 35.3445 24.5611 35.6243 24.9062 35.6243H32.6559C33.0011 35.6243 33.2809 35.3445 33.2809 34.9994C33.2809 34.6542 33.0011 34.3744 32.656 34.3744Z" fill="#003964" stroke="#003964" stroke-width="0.5"/>
<path d="M41.593 39.0625V19.3757C41.6452 18.1169 40.6672 17.0541 39.4084 17.0019C39.3554 16.9996 39.3023 16.9993 39.2493 17.0008H25.8122C24.4373 17.0008 23.1561 18.0007 23.1561 19.3757V20.4381H22.0624C20.6326 20.4695 19.4716 21.6032 19.4062 23.0318V42.7499C19.4469 43.1309 19.684 43.4628 20.0312 43.6249C20.3906 43.7836 20.8103 43.7096 21.0937 43.4373L22.9998 41.7186L25.281 43.7498C25.4512 43.9077 25.6739 43.9967 25.906 43.9998C26.1369 43.9912 26.3578 43.9029 26.531 43.7498L28.7809 41.7186L31.0308 43.7498C31.3867 44.0681 31.9249 44.0681 32.2808 43.7498L34.5619 41.7186L36.4369 43.4373C36.6639 43.7167 37.0574 43.7954 37.3743 43.6249C37.6848 43.4466 37.8667 43.1071 37.8431 42.7499V38.3125L38.218 38.0313L40.1242 39.75C40.3005 39.9181 40.537 40.0082 40.7804 40C40.8884 40.0097 40.9969 39.988 41.0929 39.9375C41.4214 39.774 41.6188 39.4285 41.593 39.0625ZM36.5931 42.0624L35.1244 40.625C34.7935 40.2867 34.2536 40.2729 33.9057 40.5937L31.6245 42.6249L29.4058 40.5937C29.0405 40.3013 28.5212 40.3013 28.1559 40.5937L25.906 42.6249L23.6248 40.5937C23.2307 40.2708 22.6597 40.284 22.2811 40.625L20.6562 42.0624V23.0319C20.7187 22.2933 21.3217 21.7171 22.0623 21.6882H35.4994C36.1869 21.6882 36.5931 22.3444 36.5931 23.0319V42.0624ZM40.343 19.3757V38.3751L38.7806 36.9376C38.5306 36.6876 38.4681 36.6251 37.8431 36.7189V23.0319C37.8431 21.6569 36.8744 20.4382 35.4994 20.4382H24.406V19.3757C24.406 18.6882 25.1247 18.2507 25.8122 18.2507H39.2493C39.8176 18.2138 40.3083 18.6445 40.3453 19.2128C40.3489 19.2671 40.3481 19.3216 40.343 19.3757Z" fill="#003964" stroke="#003964" stroke-width="0.5"/>
</g>
<defs>
<clipPath id="clip0_219_17622">
<rect width="27" height="27" fill="white" transform="translate(17 17)"/>
</clipPath>
</defs>
</svg>
