<svg width="60" height="60" viewBox="0 0 60 60" fill="none" xmlns="http://www.w3.org/2000/svg">
<rect x="1" y="1" width="58" height="58" rx="29" fill="#F5F9FC" stroke="#003964" stroke-width="2"/>
<path d="M30 36.875C23.65 36.875 17.6375 36.5025 16.6488 36.3437C16.4625 35.8037 16.25 34.0074 16.25 32.4999C16.25 31.5924 16.25 29.2337 16.5388 28.6887C17.1913 28.4562 17.5238 27.96 17.8175 27.5187L17.9563 27.29C18.0813 27.2187 18.545 27.2062 18.8225 27.1974C19.5475 27.1762 20.3701 27.1524 20.5963 26.4387C20.7925 25.8174 22.96 21.5874 23.4363 21.1674C23.965 20.915 27.8588 20.625 30 20.625C30.345 20.625 30.625 20.345 30.625 20C30.625 19.655 30.345 19.375 30 19.375C29.285 19.375 23.7288 19.5262 22.8 20.0912C21.9762 20.5925 19.8738 24.95 19.4675 25.9C19.305 25.9337 18.9875 25.9425 18.785 25.9487C18.0875 25.9687 17.365 25.99 16.9913 26.5125L16.7775 26.825C16.5 27.24 16.3538 27.4437 16.0737 27.525C15.155 27.7937 15 29.2762 15 32.5C15 32.9525 15.0262 36.9325 15.9563 37.4263C16.6313 37.7863 24.44 38.125 30 38.125C30.345 38.125 30.625 37.845 30.625 37.5C30.625 37.155 30.345 36.875 30 36.875Z" fill="#003964" stroke="#003964" stroke-width="0.585938"/>
<path d="M29.9997 24.375C25.2847 24.375 20.8659 25.0613 19.6997 25.7025C19.3972 25.8687 19.286 26.2488 19.4522 26.5512C19.5647 26.7575 19.7797 26.875 19.9997 26.875C20.1022 26.875 20.2047 26.8499 20.2997 26.7974C21.0672 26.3774 24.9647 25.6249 29.9997 25.6249C30.3447 25.6249 30.6247 25.3449 30.6247 24.9999C30.6247 24.6549 30.3447 24.375 29.9997 24.375Z" fill="#003964" stroke="#003964" stroke-width="0.585938"/>
<path d="M29.9995 33.1247C23.4358 33.1247 15.752 32.5085 15.6745 32.5022C15.3407 32.4772 15.0283 32.7309 15.002 33.0747C14.9745 33.4185 15.2308 33.7209 15.5745 33.7485C15.6508 33.7535 23.3846 34.3747 29.9996 34.3747C30.3446 34.3747 30.6246 34.0947 30.6246 33.7497C30.6246 33.4047 30.3445 33.1247 29.9995 33.1247Z" fill="#003964" stroke="#003964" stroke-width="0.585938"/>
<path d="M20.625 36.8749C20.28 36.8749 20 37.1549 20 37.4999V38.7499C20 39.0949 19.7187 39.3749 19.375 39.3749H16.875C16.5312 39.3749 16.25 39.0949 16.25 38.7499V36.2499C16.25 35.9049 15.97 35.6249 15.625 35.6249C15.28 35.6249 15 35.905 15 36.25V38.75C15 39.7837 15.8412 40.625 16.875 40.625H19.375C20.4088 40.625 21.25 39.7837 21.25 38.75V37.4999C21.25 37.1549 20.97 36.8749 20.625 36.8749Z" fill="#003964" stroke="#003964" stroke-width="0.585938"/>
<path d="M20.625 24.375H18.125C17.78 24.375 17.5 24.655 17.5 25C17.5 25.345 17.78 25.625 18.125 25.625H20.625C20.97 25.625 21.2501 25.345 21.2501 25C21.2501 24.655 20.97 24.375 20.625 24.375Z" fill="#003964" stroke="#003964" stroke-width="0.585938"/>
<path d="M43.9275 27.525C43.6475 27.4437 43.5012 27.24 43.2237 26.825L43.01 26.5125C42.6362 25.99 41.9138 25.9687 41.215 25.9487C41.0125 25.9425 40.695 25.9325 40.5325 25.9C40.1262 24.95 38.0237 20.5925 37.2 20.0912C36.2712 19.5262 30.715 19.375 30 19.375C29.655 19.375 29.375 19.655 29.375 20C29.375 20.345 29.655 20.625 30 20.625C32.1413 20.625 36.035 20.915 36.5225 21.1375C37.0412 21.5875 39.21 25.8175 39.4062 26.4388C39.6325 27.1525 40.455 27.1763 41.18 27.1975C41.4563 27.205 41.92 27.2188 41.9925 27.2375L42.1838 27.5188C42.4775 27.96 42.81 28.4563 43.4625 28.6888C43.75 29.2337 43.75 31.5925 43.75 32.5C43.75 33.9913 43.5413 35.7663 43.3575 36.3275C42.1688 36.5138 36.2487 36.875 30 36.875C29.655 36.875 29.375 37.155 29.375 37.5C29.375 37.845 29.655 38.1251 30 38.1251C35.56 38.1251 43.3688 37.7863 44.0425 37.4263C44.9738 36.9325 45 32.9525 45 32.5C45 29.2762 44.845 27.7937 43.9275 27.525Z" fill="#003964" stroke="#003964" stroke-width="0.585938"/>
<path d="M40.3 25.7025C39.1338 25.0613 34.715 24.375 30 24.375C29.655 24.375 29.375 24.655 29.375 25C29.375 25.345 29.655 25.625 30 25.625C35.035 25.625 38.9325 26.3776 39.7 26.7976C39.795 26.8501 39.8976 26.8751 40 26.8751C40.2201 26.8751 40.435 26.7576 40.5475 26.5513C40.7138 26.2488 40.6025 25.8687 40.3 25.7025Z" fill="#003964" stroke="#003964" stroke-width="0.585938"/>
<path d="M44.9975 33.0737C44.9713 32.7299 44.6713 32.4774 44.325 32.5012C44.2475 32.5087 36.5638 33.1249 30 33.1249C29.655 33.1249 29.375 33.4049 29.375 33.7499C29.375 34.0949 29.655 34.3749 30 34.3749C36.615 34.3749 44.3488 33.7537 44.425 33.7475C44.7688 33.7199 45.025 33.4174 44.9975 33.0737Z" fill="#003964" stroke="#003964" stroke-width="0.585938"/>
<path d="M44.3751 35.625C44.0301 35.625 43.7501 35.905 43.7501 36.25V38.75C43.7501 39.095 43.4688 39.3751 43.1251 39.3751H40.6251C40.2813 39.3751 40 39.095 40 38.75V37.5C40 37.155 39.72 36.875 39.375 36.875C39.03 36.875 38.75 37.155 38.75 37.5V38.75C38.75 39.7838 39.5912 40.625 40.625 40.625H43.1251C44.1589 40.625 45.0001 39.7838 45.0001 38.75V36.25C45.0001 35.905 44.7201 35.625 44.3751 35.625Z" fill="#003964" stroke="#003964" stroke-width="0.585938"/>
<path d="M41.875 24.375H39.375C39.03 24.375 38.75 24.655 38.75 25C38.75 25.345 39.03 25.625 39.375 25.625H41.875C42.22 25.625 42.5001 25.345 42.5001 25C42.5001 24.655 42.22 24.375 41.875 24.375Z" fill="#003964" stroke="#003964" stroke-width="0.585938"/>
<path d="M23.0782 30.5197C22.7632 30.1797 22.347 29.9997 21.8745 29.9997C20.4932 29.9997 16.3832 29.3872 16.342 29.3822C16.0032 29.3334 15.682 29.5659 15.632 29.9084C15.5807 30.2497 15.817 30.5672 16.157 30.6184C16.3295 30.6434 20.3995 31.2496 21.8745 31.2496C21.9995 31.2496 22.082 31.2834 22.1595 31.3684C22.487 31.7234 22.5308 32.6734 22.5008 33.0784C22.477 33.4222 22.7333 33.7222 23.077 33.7484C23.0933 33.7497 23.1096 33.7497 23.1258 33.7497C23.4483 33.7497 23.722 33.5009 23.7471 33.1734C23.762 32.991 23.8645 31.3697 23.0782 30.5197Z" fill="#003964" stroke="#003964" stroke-width="0.585938"/>
<path d="M44.3774 29.9075C44.3261 29.565 44.0086 29.3387 43.6674 29.3812C43.6261 29.3875 39.5174 30 38.1349 30C37.6624 30 37.2462 30.18 36.9312 30.5212C36.1449 31.3712 36.2474 32.9925 36.2624 33.175C36.2875 33.5012 36.5612 33.75 36.8837 33.75C36.8999 33.75 36.9162 33.7487 36.9325 33.7475C37.2762 33.7212 37.5337 33.4212 37.5087 33.0774C37.4775 32.6724 37.5212 31.7212 37.85 31.3674C37.9275 31.2837 38.01 31.25 38.135 31.25C39.61 31.25 43.6787 30.6437 43.8525 30.6174C44.1936 30.5662 44.4286 30.2487 44.3774 29.9075Z" fill="#003964" stroke="#003964" stroke-width="0.585938"/>
<path d="M34.3751 30.6249H25.625C25.28 30.6249 25 30.9049 25 31.2499C25 31.5949 25.28 31.8749 25.625 31.8749H34.375C34.72 31.8749 35 31.5948 35 31.2498C35 30.9048 34.7201 30.6249 34.3751 30.6249Z" fill="#003964" stroke="#003964" stroke-width="0.585938"/>
</svg>
