<svg width="60" height="60" viewBox="0 0 60 60" fill="none" xmlns="http://www.w3.org/2000/svg">
<rect x="1" y="1" width="58" height="58" rx="29" fill="#F5F9FC" stroke="#003964" stroke-width="2"/>
<path d="M41.5376 41.0769H40.1529V22.1538C40.1529 22.0314 40.1043 21.914 40.0178 21.8274C39.9312 21.7409 39.8138 21.6923 39.6914 21.6923H35.3837C35.2613 21.6923 35.1439 21.7409 35.0574 21.8274C34.9708 21.914 34.9222 22.0314 34.9222 22.1538V41.0769H32.4606V29.2307C32.4606 29.1083 32.412 28.9909 32.3255 28.9044C32.2389 28.8178 32.1215 28.7692 31.9991 28.7692H27.6914C27.569 28.7692 27.4516 28.8178 27.365 28.9044C27.2785 28.9909 27.2299 29.1083 27.2299 29.2307V41.0769H24.7683V36C24.7683 35.8775 24.7197 35.7601 24.6331 35.6736C24.5466 35.587 24.4292 35.5384 24.3068 35.5384H19.9991C19.8767 35.5384 19.7593 35.587 19.6727 35.6736C19.5862 35.7601 19.5376 35.8775 19.5376 36V41.0769H18.1529C18.0305 41.0769 17.9131 41.1255 17.8266 41.2121C17.74 41.2986 17.6914 41.416 17.6914 41.5384C17.6914 41.6608 17.74 41.7782 17.8266 41.8648C17.9131 41.9513 18.0305 42 18.1529 42H41.5376C41.66 42 41.7774 41.9513 41.8639 41.8648C41.9505 41.7782 41.9991 41.6608 41.9991 41.5384C41.9991 41.416 41.9505 41.2986 41.8639 41.2121C41.7774 41.1255 41.66 41.0769 41.5376 41.0769ZM35.8453 22.6153H39.2299V41.0769H35.8453V22.6153ZM28.1529 29.6923H31.5376V41.0769H28.1529V29.6923ZM20.4606 36.4615H23.8453V41.0769H20.4606V36.4615Z" fill="#003964" stroke="#003964"/>
<path d="M18.4611 32.4615C18.5835 32.4614 18.7008 32.4127 18.7873 32.3262L31.5381 19.5754V21.5385C31.5381 21.6609 31.5867 21.7783 31.6732 21.8648C31.7598 21.9514 31.8772 22 31.9996 22C32.122 22 32.2394 21.9514 32.326 21.8648C32.4125 21.7783 32.4611 21.6609 32.4611 21.5385V18.4615C32.4607 18.4035 32.4492 18.3461 32.4273 18.2923C32.4041 18.2356 32.3698 18.1841 32.3265 18.1408C32.2832 18.0975 32.2317 18.0632 32.175 18.04C32.1197 18.0152 32.0601 18.0016 31.9996 18H28.9227C28.8003 18 28.6829 18.0486 28.5963 18.1352C28.5098 18.2217 28.4611 18.3391 28.4611 18.4615C28.4611 18.5839 28.5098 18.7013 28.5963 18.7879C28.6829 18.8745 28.8003 18.9231 28.9227 18.9231H30.8857L18.135 31.6738C18.0705 31.7384 18.0266 31.8206 18.0088 31.9101C17.9911 31.9995 18.0002 32.0923 18.0351 32.1766C18.07 32.2609 18.1291 32.3329 18.2049 32.3836C18.2808 32.4343 18.3699 32.4615 18.4611 32.4615Z" fill="#003964" stroke="#003964"/>
</svg>
