<svg width="60" height="60" viewBox="0 0 60 60" fill="none" xmlns="http://www.w3.org/2000/svg">
<rect x="1" y="1" width="58" height="58" rx="29" fill="#F5F9FC" stroke="#003964" stroke-width="2"/>
<path d="M32.3333 23H27.6667C27.2987 23 27 23.2987 27 23.6667V32.3333H23.6667C23.2987 32.3333 23 32.632 23 33C23 33.368 23.2987 33.6667 23.6667 33.6667H27V35.6667C27 36.0347 27.2987 36.3333 27.6667 36.3333C28.0347 36.3333 28.3333 36.0347 28.3333 35.6667V33.6667H31.6667C32.0347 33.6667 32.3333 33.368 32.3333 33C32.3333 32.632 32.0347 32.3333 31.6667 32.3333H28.3333V31H32.3333C34.5387 31 36.3333 29.2053 36.3333 27C36.3333 24.7947 34.5387 23 32.3333 23ZM32.3333 29.6667H28.3333V24.3333H32.3333C33.804 24.3333 35 25.5293 35 27C35 28.4707 33.804 29.6667 32.3333 29.6667Z" fill="#003964" stroke="#003964" stroke-width="0.5"/>
<path d="M29.6667 15C21.58 15 15 21.58 15 29.6667C15 37.7533 21.58 44.3333 29.6667 44.3333C37.7533 44.3333 44.3333 37.7533 44.3333 29.6667C44.3333 21.58 37.7533 15 29.6667 15ZM29.6667 43C22.3147 43 16.3333 37.0187 16.3333 29.6667C16.3333 22.3147 22.3147 16.3333 29.6667 16.3333C37.0187 16.3333 43 22.3147 43 29.6667C43 37.0187 37.0187 43 29.6667 43Z" fill="#003964" stroke="#003964" stroke-width="0.5"/>
</svg>
