<svg width="61" height="60" viewBox="0 0 61 60" fill="none" xmlns="http://www.w3.org/2000/svg">
<rect x="1.5" y="1" width="58" height="58" rx="29" fill="#F5F9FC" stroke="#003964" stroke-width="2"/>
<g clip-path="url(#clip0_2036_14105)">
<path d="M42.281 18.0197C41.9878 17.7265 41.5138 17.7265 41.2205 18.0197L18.7297 40.5106C18.4365 40.8038 18.4365 41.2778 18.7297 41.5711C18.876 41.7173 19.0679 41.7908 19.2599 41.7908C19.4519 41.7908 19.6432 41.7181 19.7902 41.5711L42.281 19.0802C42.5743 18.787 42.5743 18.313 42.281 18.0197Z" fill="#003964" stroke="#003964" stroke-width="0.5"/>
<path d="M23.7567 17.8094C20.8587 17.8094 18.5 20.1667 18.5 23.0639C18.5 25.9619 20.8587 28.3199 23.7567 28.3199C26.6539 28.3199 29.0119 25.9626 29.0119 23.0639C29.0119 20.1667 26.6539 17.8094 23.7567 17.8094ZM23.7567 26.8206C21.6852 26.8206 20 25.1361 20 23.0647C20 20.9947 21.6852 19.3102 23.7567 19.3102C25.8274 19.3102 27.5119 20.9947 27.5119 23.0647C27.5119 25.1361 25.8274 26.8206 23.7567 26.8206Z" fill="#003964" stroke="#003964" stroke-width="0.5"/>
<path d="M37.2337 31.2878C34.3365 31.2878 31.9785 33.6458 31.9785 36.5431C31.9785 39.441 34.3365 41.7998 37.2337 41.7998C40.1317 41.7998 42.4889 39.441 42.4889 36.5431C42.4889 33.6458 40.131 31.2878 37.2337 31.2878ZM37.2337 40.2998C35.163 40.2998 33.4785 38.6145 33.4785 36.5431C33.4785 34.4723 35.163 32.7878 37.2337 32.7878C39.3045 32.7878 40.9889 34.4723 40.9889 36.5431C40.9889 38.6145 39.3045 40.2998 37.2337 40.2998Z" fill="#003964" stroke="#003964" stroke-width="0.5"/>
</g>
<defs>
<clipPath id="clip0_2036_14105">
<rect width="24" height="24" fill="white" transform="translate(18.5 17.8)"/>
</clipPath>
</defs>
</svg>
