<svg width="60" height="60" viewBox="0 0 60 60" fill="none" xmlns="http://www.w3.org/2000/svg">
<rect x="1" y="1" width="58" height="58" rx="29" fill="#F5F9FC" stroke="#003964" stroke-width="2"/>
<g clip-path="url(#clip0_477_19749)">
<path d="M45.8333 46.0001H15.1667C14.7987 46.0001 14.5 45.7014 14.5 45.3334C14.5 44.9654 14.7987 44.6667 15.1667 44.6667H45.8333C46.2013 44.6667 46.5 44.9654 46.5 45.3334C46.5 45.7014 46.2013 46.0001 45.8333 46.0001Z" fill="#003964" stroke="#003964" stroke-width="0.5"/>
<path d="M23.1654 46.0001H16.4987C16.1307 46.0001 15.832 45.7014 15.832 45.3334V38.0001C15.832 37.2654 16.4294 36.6667 17.1654 36.6667H22.4987C23.2347 36.6667 23.832 37.2654 23.832 38.0001V45.3334C23.832 45.7014 23.5334 46.0001 23.1654 46.0001ZM17.1654 44.6667H22.4987V38.0001H17.1654V44.6667Z" fill="#003964" stroke="#003964" stroke-width="0.5"/>
<path d="M33.8333 46.0001H27.1667C26.7987 46.0001 26.5 45.7014 26.5 45.3334V30.0001C26.5 29.2654 27.0973 28.6667 27.8333 28.6667H33.1667C33.9027 28.6667 34.5 29.2654 34.5 30.0001V45.3334C34.5 45.7014 34.2013 46.0001 33.8333 46.0001ZM27.8333 44.6667H33.1667V30.0001H27.8333V44.6667Z" fill="#003964" stroke="#003964" stroke-width="0.5"/>
<path d="M44.5013 45.9999H37.8346C37.4666 45.9999 37.168 45.7012 37.168 45.3332V32.6666C37.168 31.9319 37.7653 31.3333 38.5013 31.3333H43.8346C44.5706 31.3333 45.168 31.9319 45.168 32.6666V45.3332C45.168 45.7012 44.8693 45.9999 44.5013 45.9999ZM38.5013 44.6666H43.8346V32.6666H38.5013V44.6666Z" fill="#003964" stroke="#003964" stroke-width="0.5"/>
<path d="M17.835 28.6666C17.6643 28.6666 17.4936 28.6012 17.363 28.4719C17.103 28.2119 17.103 27.7892 17.363 27.5292L24.0296 20.8626C24.195 20.6972 24.4336 20.6279 24.663 20.6866L34.9643 23.2612L42.6976 15.5279C42.9576 15.2679 43.3803 15.2679 43.6403 15.5279C43.9003 15.7879 43.9003 16.2106 43.6403 16.4706L35.6403 24.4706C35.4763 24.6359 35.2363 24.7026 35.007 24.6452L24.7056 22.0719L18.3056 28.4719C18.1763 28.6012 18.0056 28.6666 17.835 28.6666Z" fill="#003964" stroke="#003964" stroke-width="0.5"/>
<path d="M43.168 21.9999C42.8 21.9999 42.5013 21.7013 42.5013 21.3333V16.6666H37.8346C37.4666 16.6666 37.168 16.3679 37.168 15.9999C37.168 15.6319 37.4666 15.3333 37.8346 15.3333H43.168C43.536 15.3333 43.8346 15.6319 43.8346 15.9999V21.3333C43.8346 21.7013 43.536 21.9999 43.168 21.9999Z" fill="#003964" stroke="#003964" stroke-width="0.5"/>
</g>
<defs>
<clipPath id="clip0_477_19749">
<rect width="32" height="32" fill="white" transform="translate(14.5 14)"/>
</clipPath>
</defs>
</svg>
