<svg width="61" height="60" viewBox="0 0 61 60" fill="none" xmlns="http://www.w3.org/2000/svg">
<rect x="1.69922" y="1" width="58" height="58" rx="29" fill="#F5F9FC" stroke="#003964" stroke-width="2"/>
<path d="M30.6992 36.875C24.3492 36.875 18.3367 36.5025 17.348 36.3437C17.1617 35.8037 16.9493 34.0074 16.9493 32.4999C16.9493 31.5924 16.9493 29.2337 17.238 28.6887C17.8905 28.4562 18.223 27.96 18.5168 27.5187L18.6555 27.29C18.7805 27.2187 19.2443 27.2062 19.5218 27.1974C20.2467 27.1762 21.0693 27.1524 21.2955 26.4387C21.4917 25.8174 23.6592 21.5874 24.1355 21.1674C24.6642 20.915 28.558 20.625 30.6992 20.625C31.0442 20.625 31.3242 20.345 31.3242 20C31.3242 19.655 31.0442 19.375 30.6992 19.375C29.9842 19.375 24.428 19.5262 23.4992 20.0912C22.6754 20.5925 20.573 24.95 20.1667 25.9C20.0042 25.9337 19.6867 25.9425 19.4842 25.9487C18.7867 25.9687 18.0642 25.99 17.6905 26.5125L17.4767 26.825C17.1992 27.24 17.053 27.4437 16.7729 27.525C15.8542 27.7937 15.6992 29.2762 15.6992 32.5C15.6992 32.9525 15.7255 36.9325 16.6555 37.4263C17.3305 37.7863 25.1392 38.125 30.6992 38.125C31.0442 38.125 31.3242 37.845 31.3242 37.5C31.3242 37.155 31.0442 36.875 30.6992 36.875Z" fill="#003964" stroke="#003964" stroke-width="0.585938"/>
<path d="M30.6989 24.375C25.9839 24.375 21.5652 25.0613 20.3989 25.7025C20.0964 25.8687 19.9852 26.2488 20.1514 26.5512C20.2639 26.7575 20.4789 26.875 20.6989 26.875C20.8014 26.875 20.9039 26.8499 20.9989 26.7974C21.7664 26.3774 25.6639 25.6249 30.6989 25.6249C31.0439 25.6249 31.3239 25.3449 31.3239 24.9999C31.3239 24.6549 31.0439 24.375 30.6989 24.375Z" fill="#003964" stroke="#003964" stroke-width="0.585938"/>
<path d="M30.6987 33.1247C24.135 33.1247 16.4512 32.5085 16.3737 32.5022C16.04 32.4772 15.7275 32.7309 15.7012 33.0747C15.6738 33.4185 15.93 33.7209 16.2738 33.7485C16.35 33.7535 24.0838 34.3747 30.6988 34.3747C31.0438 34.3747 31.3238 34.0947 31.3238 33.7497C31.3238 33.4047 31.0437 33.1247 30.6987 33.1247Z" fill="#003964" stroke="#003964" stroke-width="0.585938"/>
<path d="M21.3242 36.8749C20.9792 36.8749 20.6992 37.1549 20.6992 37.4999V38.7499C20.6992 39.0949 20.4179 39.3749 20.0742 39.3749H17.5742C17.2304 39.3749 16.9492 39.0949 16.9492 38.7499V36.2499C16.9492 35.9049 16.6692 35.6249 16.3242 35.6249C15.9792 35.6249 15.6992 35.905 15.6992 36.25V38.75C15.6992 39.7837 16.5404 40.625 17.5742 40.625H20.0742C21.108 40.625 21.9492 39.7837 21.9492 38.75V37.4999C21.9492 37.1549 21.6692 36.8749 21.3242 36.8749Z" fill="#003964" stroke="#003964" stroke-width="0.585938"/>
<path d="M21.3243 24.375H18.8242C18.4792 24.375 18.1992 24.655 18.1992 25C18.1992 25.345 18.4792 25.625 18.8242 25.625H21.3243C21.6693 25.625 21.9493 25.345 21.9493 25C21.9493 24.655 21.6693 24.375 21.3243 24.375Z" fill="#003964" stroke="#003964" stroke-width="0.585938"/>
<path d="M44.6267 27.525C44.3467 27.4437 44.2005 27.24 43.923 26.825L43.7092 26.5125C43.3354 25.99 42.613 25.9687 41.9142 25.9487C41.7117 25.9425 41.3942 25.9325 41.2317 25.9C40.8255 24.95 38.7229 20.5925 37.8992 20.0912C36.9705 19.5262 31.4143 19.375 30.6992 19.375C30.3542 19.375 30.0742 19.655 30.0742 20C30.0742 20.345 30.3542 20.625 30.6992 20.625C32.8405 20.625 36.7342 20.915 37.2217 21.1375C37.7404 21.5875 39.9092 25.8175 40.1055 26.4388C40.3317 27.1525 41.1542 27.1763 41.8792 27.1975C42.1555 27.205 42.6192 27.2188 42.6917 27.2375L42.883 27.5188C43.1767 27.96 43.5092 28.4563 44.1617 28.6888C44.4493 29.2337 44.4493 31.5925 44.4493 32.5C44.4493 33.9913 44.2405 35.7663 44.0567 36.3275C42.868 36.5138 36.948 36.875 30.6992 36.875C30.3542 36.875 30.0742 37.155 30.0742 37.5C30.0742 37.845 30.3542 38.1251 30.6992 38.1251C36.2593 38.1251 44.068 37.7863 44.7418 37.4263C45.673 36.9325 45.6992 32.9525 45.6992 32.5C45.6992 29.2762 45.5443 27.7937 44.6267 27.525Z" fill="#003964" stroke="#003964" stroke-width="0.585938"/>
<path d="M40.9993 25.7025C39.833 25.0613 35.4142 24.375 30.6992 24.375C30.3542 24.375 30.0742 24.655 30.0742 25C30.0742 25.345 30.3542 25.625 30.6992 25.625C35.7343 25.625 39.6317 26.3776 40.3993 26.7976C40.4942 26.8501 40.5968 26.8751 40.6993 26.8751C40.9193 26.8751 41.1343 26.7576 41.2468 26.5513C41.413 26.2488 41.3017 25.8687 40.9993 25.7025Z" fill="#003964" stroke="#003964" stroke-width="0.585938"/>
<path d="M45.6967 33.0737C45.6705 32.7299 45.3705 32.4774 45.0242 32.5012C44.9467 32.5087 37.263 33.1249 30.6992 33.1249C30.3542 33.1249 30.0742 33.4049 30.0742 33.7499C30.0742 34.0949 30.3542 34.3749 30.6992 34.3749C37.3142 34.3749 45.048 33.7537 45.1243 33.7475C45.468 33.7199 45.7243 33.4174 45.6967 33.0737Z" fill="#003964" stroke="#003964" stroke-width="0.585938"/>
<path d="M45.0743 35.625C44.7293 35.625 44.4493 35.905 44.4493 36.25V38.75C44.4493 39.095 44.1681 39.3751 43.8243 39.3751H41.3243C40.9805 39.3751 40.6993 39.095 40.6993 38.75V37.5C40.6993 37.155 40.4192 36.875 40.0742 36.875C39.7292 36.875 39.4492 37.155 39.4492 37.5V38.75C39.4492 39.7838 40.2904 40.625 41.3242 40.625H43.8244C44.8581 40.625 45.6994 39.7838 45.6994 38.75V36.25C45.6994 35.905 45.4193 35.625 45.0743 35.625Z" fill="#003964" stroke="#003964" stroke-width="0.585938"/>
<path d="M42.5743 24.375H40.0742C39.7292 24.375 39.4492 24.655 39.4492 25C39.4492 25.345 39.7292 25.625 40.0742 25.625H42.5743C42.9193 25.625 43.1993 25.345 43.1993 25C43.1993 24.655 42.9193 24.375 42.5743 24.375Z" fill="#003964" stroke="#003964" stroke-width="0.585938"/>
<path d="M23.7794 30.5197C23.4644 30.1797 23.0481 29.9997 22.5756 29.9997C21.1944 29.9997 17.0844 29.3872 17.0431 29.3822C16.7044 29.3334 16.3831 29.5659 16.3332 29.9084C16.2819 30.2497 16.5181 30.5672 16.8582 30.6184C17.0307 30.6434 21.1006 31.2496 22.5757 31.2496C22.7007 31.2496 22.7832 31.2834 22.8607 31.3684C23.1882 31.7234 23.2319 32.6734 23.2019 33.0784C23.1782 33.4222 23.4344 33.7222 23.7782 33.7484C23.7944 33.7497 23.8107 33.7497 23.827 33.7497C24.1495 33.7497 24.4232 33.5009 24.4482 33.1734C24.4632 32.991 24.5656 31.3697 23.7794 30.5197Z" fill="#003964" stroke="#003964" stroke-width="0.585938"/>
<path d="M45.0746 29.9075C45.0234 29.565 44.7059 29.3387 44.3647 29.3812C44.3234 29.3875 40.2146 30 38.8322 30C38.3597 30 37.9434 30.18 37.6284 30.5212C36.8422 31.3712 36.9447 32.9925 36.9597 33.175C36.9847 33.5012 37.2585 33.75 37.581 33.75C37.5972 33.75 37.6135 33.7487 37.6297 33.7475C37.9735 33.7212 38.2309 33.4212 38.206 33.0774C38.1748 32.6724 38.2185 31.7212 38.5472 31.3674C38.6248 31.2837 38.7073 31.25 38.8322 31.25C40.3072 31.25 44.376 30.6437 44.5498 30.6174C44.8909 30.5662 45.1259 30.2487 45.0746 29.9075Z" fill="#003964" stroke="#003964" stroke-width="0.585938"/>
<path d="M35.0743 30.6249H26.3242C25.9792 30.6249 25.6992 30.9049 25.6992 31.2499C25.6992 31.5949 25.9792 31.8749 26.3242 31.8749H35.0742C35.4192 31.8749 35.6992 31.5948 35.6992 31.2498C35.6992 30.9048 35.4193 30.6249 35.0743 30.6249Z" fill="#003964" stroke="#003964" stroke-width="0.585938"/>
</svg>
