<svg width="60" height="60" viewBox="0 0 60 60" fill="none" xmlns="http://www.w3.org/2000/svg">
<rect x="1" y="1" width="58" height="58" rx="29" fill="#F5F9FC" stroke="#003964" stroke-width="2"/>
<g clip-path="url(#clip0_219_17614)">
<path d="M45.9607 29.5855C45.9606 29.5854 45.9606 29.5853 45.9606 29.5852L40.6741 16.3112C40.5619 16.0292 40.2422 15.8915 39.9601 16.0037C39.9599 16.0037 39.9597 16.0038 39.9595 16.0039L18.5128 24.5438C18.4254 24.5816 18.3495 24.6419 18.293 24.7186C18.1146 24.8113 18.0019 24.9947 18 25.1957V39.4865C18 39.7901 18.2461 40.0362 18.5496 40.0362H41.6348C41.9384 40.0362 42.1845 39.7901 42.1845 39.4865V31.6815L45.6539 30.2997C45.9358 30.1873 46.0732 29.8675 45.9607 29.5855ZM41.0852 38.9369H19.0993V25.7453H41.0852V38.9369ZM27.1709 24.6488L36.3742 20.9816C37.1955 21.8449 38.3337 22.3356 39.5253 22.3403L40.4432 24.6488H27.1709ZM42.1845 30.5009V25.1957C42.1845 24.8922 41.9384 24.6461 41.6348 24.6461H41.626L40.4613 21.7208C40.4484 21.6964 40.4334 21.6732 40.4163 21.6516C40.3573 21.3868 40.1122 21.2062 39.8419 21.2283C38.7331 21.3294 37.6485 20.8623 36.9601 19.9872C36.7888 19.7758 36.4877 19.7233 36.2549 19.8641C36.2288 19.8672 36.2029 19.872 36.1774 19.8784L24.9415 24.3525C24.8055 24.4059 24.6968 24.5116 24.6397 24.6461H21.2275L39.8562 17.2286L44.7365 29.4829L42.1845 30.5009Z" fill="#003964" stroke="#003964" stroke-width="0.5"/>
<path d="M20.5917 35.2256C21.6588 35.541 22.4939 36.375 22.8106 37.4417C22.8801 37.6746 23.0942 37.8341 23.3372 37.8342C23.3657 37.8324 23.394 37.8281 23.4218 37.8215C23.4465 37.8285 23.4717 37.8337 23.4971 37.8369H36.6886C36.7113 37.834 36.7337 37.8294 36.7557 37.8232C37.0303 37.89 37.3071 37.7216 37.3739 37.447C37.3741 37.4459 37.3744 37.445 37.3746 37.4439C37.6905 36.3761 38.5257 35.5409 39.5935 35.225C39.8525 35.1459 40.0134 34.8878 39.9706 34.6204C39.9779 34.5937 39.9832 34.5665 39.9865 34.539V30.1419C39.9833 30.1143 39.9778 30.0871 39.97 30.0605C40.0131 29.7931 39.8521 29.5349 39.593 29.4559C38.5252 29.1401 37.6902 28.3045 37.3752 27.2364C37.2956 26.9757 37.035 26.8144 36.7661 26.8594C36.7407 26.8523 36.7148 26.8472 36.6886 26.844H23.4971C23.4694 26.8473 23.442 26.8528 23.4152 26.8605C23.1479 26.8179 22.8899 26.9787 22.8106 27.2375C22.4945 28.3052 21.6594 29.1401 20.5917 29.4559C20.3327 29.5351 20.1718 29.7931 20.2146 30.0605C20.2075 30.0873 20.2023 30.1144 20.1992 30.1419V34.539C20.2024 34.5649 20.2075 34.5904 20.2146 34.6154C20.1695 34.8846 20.3308 35.1455 20.5917 35.2256ZM21.2985 30.365C22.4022 29.9217 23.277 29.047 23.7203 27.9433H36.4649C36.9084 29.047 37.7834 29.9217 38.8872 30.365V34.3159C37.7839 34.7597 36.9093 35.6343 36.4655 36.7376H23.7203C23.2765 35.6343 22.4019 34.7597 21.2985 34.3159V30.365Z" fill="#003964" stroke="#003964" stroke-width="0.5"/>
<path d="M30.0928 35.6384C31.9142 35.6384 33.3907 34.1619 33.3907 32.3405C33.3907 30.5191 31.9142 29.0426 30.0928 29.0426C28.2714 29.0426 26.7949 30.5191 26.7949 32.3405C26.7967 34.1611 28.2722 35.6366 30.0928 35.6384ZM30.0928 30.1419C31.307 30.1419 32.2914 31.1262 32.2914 32.3405C32.2914 33.5547 31.307 34.5391 30.0928 34.5391C28.8786 34.5391 27.8942 33.5547 27.8942 32.3405C27.8942 31.1262 28.8786 30.1419 30.0928 30.1419Z" fill="#003964" stroke="#003964" stroke-width="0.5"/>
<path d="M24.0452 33.1649C24.5005 33.1649 24.8696 32.7958 24.8696 32.3405C24.8696 31.8851 24.5005 31.516 24.0452 31.516C23.5899 31.516 23.2207 31.8851 23.2207 32.3405C23.2207 32.7958 23.5899 33.1649 24.0452 33.1649ZM24.0452 32.0656C24.1969 32.0656 24.32 32.1887 24.32 32.3405C24.32 32.4922 24.1969 32.6153 24.0452 32.6153C23.8934 32.6153 23.7704 32.4922 23.7704 32.3405C23.7704 32.1887 23.8934 32.0656 24.0452 32.0656Z" fill="#003964" stroke="#003964" stroke-width="0.5"/>
<path d="M36.1389 33.1649C36.5942 33.1649 36.9634 32.7958 36.9634 32.3405C36.9634 31.8851 36.5942 31.516 36.1389 31.516C35.6836 31.516 35.3145 31.8851 35.3145 32.3405C35.3145 32.7958 35.6836 33.1649 36.1389 33.1649ZM36.1389 32.0656C36.2907 32.0656 36.4137 32.1887 36.4137 32.3405C36.4137 32.4922 36.2907 32.6153 36.1389 32.6153C35.9872 32.6153 35.8641 32.4922 35.8641 32.3405C35.8641 32.1887 35.9872 32.0656 36.1389 32.0656Z" fill="#003964" stroke="#003964" stroke-width="0.5"/>
</g>
<defs>
<clipPath id="clip0_219_17614">
<rect width="28" height="28" fill="white" transform="translate(18 14)"/>
</clipPath>
</defs>
</svg>
