<svg width="34" height="34" viewBox="0 0 34 34" fill="none" xmlns="http://www.w3.org/2000/svg">
<path d="M26.1099 24.9957C31.15 19.3686 30.9681 10.6876 25.5622 5.282C20.033 -0.241953 11.0986 -0.322089 5.47127 5.10225C-0.156292 10.5263 -0.404691 19.4577 4.91256 25.1862C10.2298 30.9148 19.155 31.3315 24.9825 26.1231L31.5894 32.73C31.9012 33.0391 32.404 33.0378 32.7143 32.7275C33.0247 32.4172 33.0259 31.9144 32.7168 31.6026L26.1099 24.9957ZM6.39621 24.4479C1.39202 19.4899 1.35433 11.4141 6.31208 6.40941C11.2701 1.40522 19.3462 1.36753 24.3506 6.32528L24.4348 6.40941C29.408 11.3826 29.408 19.4745 24.4348 24.4479C19.4613 29.4214 11.3692 29.4212 6.39621 24.4479V24.4479Z" fill="white"/>
<path d="M20.1983 14.6284H16.2112V10.6448C16.2112 10.2047 15.8544 9.84766 15.4141 9.84766C14.9742 9.84766 14.6169 10.2047 14.6169 10.6448V14.6284H10.6331C10.1932 14.6284 9.83594 14.9857 9.83594 15.4255C9.83594 15.8659 10.1932 16.2227 10.6331 16.2227H14.6169V20.21C14.6169 20.6502 14.9742 21.0072 15.4141 21.0072C15.8544 21.0072 16.2112 20.6502 16.2112 20.21V16.2227H20.1983C20.6387 16.2227 20.9954 15.8659 20.9954 15.4255C20.9954 14.9857 20.6387 14.6284 20.1983 14.6284V14.6284Z" fill="white"/>
</svg>
