<svg width="81" height="80" viewBox="0 0 81 80" fill="none" xmlns="http://www.w3.org/2000/svg">
<rect x="1.25" y="0.75" width="78.5" height="78.5" rx="39.25" stroke="#003964" stroke-width="1.5"/>
<path d="M52.6806 26.6952C54.1319 26.6943 55.3913 27.7735 55.5779 29.2511C55.6439 29.7789 55.5652 30.2923 55.3705 30.7495C54.7621 29.9464 53.7517 29.4811 52.6788 29.616C52.6082 29.625 52.5376 29.6359 52.4688 29.6513" stroke="#DF2222" stroke-width="1.5" stroke-miterlimit="10" stroke-linecap="round" stroke-linejoin="round"/>
<path d="M28.5227 29.6513C28.4539 29.6359 28.3833 29.625 28.3127 29.616C27.2398 29.4811 26.2294 29.9464 25.6209 30.7495C25.4263 30.2923 25.3475 29.7789 25.4136 29.2511C25.6001 27.7735 26.8595 26.6943 28.3108 26.6952" stroke="#DF2222" stroke-width="1.5" stroke-miterlimit="10" stroke-linecap="round" stroke-linejoin="round"/>
<path d="M35.282 37.1108V35.2276C35.282 32.6916 33.2195 30.6283 30.6835 30.6283C29.2422 30.6283 28.0742 29.4603 28.0742 28.0189C28.0742 26.5794 29.2422 25.4105 30.6835 25.4105H37.6777C38.2951 25.4105 38.7967 25.9112 38.7967 26.5296C38.7967 26.8383 38.6709 27.119 38.469 27.3209C38.2662 27.5237 37.9864 27.6477 37.6777 27.6477H36.9153C39.1028 29.4503 40.4998 32.1783 40.4998 35.2276V37.1018" stroke="#DF2222" stroke-width="1.5" stroke-miterlimit="10" stroke-linecap="round" stroke-linejoin="round"/>
<path d="M36.9162 27.6484H34.5469" stroke="#DF2222" stroke-width="1.5" stroke-miterlimit="10" stroke-linecap="round" stroke-linejoin="round"/>
<path d="M40.5 37.1018V35.2276C40.5 32.1783 41.897 29.4503 44.0844 27.6477H43.3221C43.0134 27.6477 42.7336 27.5237 42.5308 27.3209C42.3289 27.119 42.2031 26.8383 42.2031 26.5296C42.2031 25.9112 42.7047 25.4105 43.3221 25.4105H50.3162C51.7576 25.4105 52.9255 26.5794 52.9255 28.0189C52.9255 29.4603 51.7576 30.6283 50.3162 30.6283C47.7802 30.6283 45.7178 32.6916 45.7178 35.2276V37.1108" stroke="#DF2222" stroke-width="1.5" stroke-miterlimit="10" stroke-linecap="round" stroke-linejoin="round"/>
<path d="M44.0859 27.6484H46.4552" stroke="#DF2222" stroke-width="1.5" stroke-miterlimit="10" stroke-linecap="round" stroke-linejoin="round"/>
<path d="M30.7539 27.6484H31.8276" stroke="#DF2222" stroke-width="1.5" stroke-miterlimit="10" stroke-linecap="round" stroke-linejoin="round"/>
<path d="M49.8516 27.6484H50.9252" stroke="#DF2222" stroke-width="1.5" stroke-miterlimit="10" stroke-linecap="round" stroke-linejoin="round"/>
<path d="M55.9617 58.4865C56.0848 58.5046 56.2107 58.5137 56.3393 58.5137C57.0653 58.5137 57.7227 58.2194 58.198 57.7441C58.6743 57.2679 58.9685 56.6105 58.9685 55.8853C58.9685 55.1592 58.6743 54.5019 58.198 54.0266C57.7227 53.5503 57.0653 53.2561 56.3393 53.2561C54.8879 53.2561 53.7109 54.4331 53.7109 55.8853C53.7109 56.1488 53.7499 56.4032 53.8232 56.6431" stroke="#DF2222" stroke-width="1.5" stroke-miterlimit="10" stroke-linecap="round" stroke-linejoin="round"/>
<path d="M49.0286 55.0197V56.7155L52.4445 57.5692C52.7705 57.0061 53.3789 56.6267 54.0761 56.6267C54.5967 56.6267 55.0693 56.8377 55.4106 57.179C55.752 57.5213 55.9629 57.9921 55.9629 58.5136C55.9629 59.0351 55.752 59.5059 55.4106 59.8481C55.0693 60.1894 54.5967 60.4004 54.0761 60.4004C53.608 60.4004 53.1807 60.2293 52.8511 59.9468L47.6569 58.6494C47.1653 58.5271 46.8203 58.0853 46.8203 57.5783V55.0197" stroke="#DF2222" stroke-width="1.5" stroke-miterlimit="10" stroke-linecap="round" stroke-linejoin="round"/>
<path d="M34.3884 55.0197V57.5783C34.3884 58.0853 34.0435 58.5271 33.5518 58.6494L28.2906 59.9631C28.201 59.9857 28.1104 59.9966 28.0226 59.9966H28.0199C27.8597 60.1224 27.6786 60.2229 27.483 60.2926C27.2865 60.3624 27.0756 60.4004 26.8556 60.4004C26.335 60.4004 25.8624 60.1894 25.521 59.8481C25.1797 59.5059 24.9688 59.0351 24.9688 58.5136C24.9688 57.9921 25.1797 57.5213 25.521 57.179C25.8624 56.8377 26.335 56.6267 26.8556 56.6267C27.5781 56.6267 28.2055 57.0333 28.5224 57.629L32.1802 56.7155V55.0197" stroke="#DF2222" stroke-width="1.5" stroke-miterlimit="10" stroke-linecap="round" stroke-linejoin="round"/>
<path d="M42.3046 51.5493L44.4124 58.5335C44.693 59.4633 43.9968 60.4004 43.0262 60.4004C42.837 60.4004 42.6523 60.3633 42.4803 60.2936C42.3082 60.2238 42.1507 60.1215 42.0149 59.9893L40.5011 58.5136L38.9873 59.9893C38.7166 60.2528 38.3544 60.4004 37.976 60.4004C37.153 60.4004 36.5273 59.7268 36.5273 58.9545C36.5273 58.816 36.5473 58.6747 36.5898 58.5335L38.6976 51.5493" stroke="#DF2222" stroke-width="1.5" stroke-miterlimit="10" stroke-linecap="round" stroke-linejoin="round"/>
<path d="M36.0888 51.0443V53.65C36.0888 54.0375 35.9322 54.387 35.6786 54.6414C35.4251 54.8949 35.0738 55.0515 34.6872 55.0515C33.914 55.0515 33.2866 54.4241 33.2866 53.65C33.2866 54.4332 32.6447 55.0651 31.8588 55.0515C31.0874 55.0371 30.4844 54.3752 30.4844 53.6038V51.2562C30.4844 49.6853 31.723 48.4042 33.2776 48.3363" stroke="#DF2222" stroke-width="1.5" stroke-miterlimit="10" stroke-linecap="round" stroke-linejoin="round"/>
<path d="M47.7223 48.3336H47.8037C49.4172 48.3336 50.7264 49.6418 50.7264 51.2562V53.6038C50.7264 54.3752 50.1225 55.0371 49.3511 55.0515C48.5652 55.0651 47.9241 54.4332 47.9241 53.65C47.9241 54.4241 47.2967 55.0515 46.5226 55.0515C46.1359 55.0515 45.7847 54.8949 45.5312 54.6414C45.2777 54.387 45.1211 54.0375 45.1211 53.65V50.9791" stroke="#DF2222" stroke-width="1.5" stroke-miterlimit="10" stroke-linecap="round" stroke-linejoin="round"/>
<path d="M47.8906 40.9093C49.0866 41.3176 50.4927 41.007 51.3737 39.917C51.3827 39.9052 51.3918 39.8943 51.4009 39.8835C52.1532 38.94 52.0636 37.4498 51.2569 36.5525C50.9256 36.1849 50.7236 35.6987 50.7236 35.1646C50.7236 34.5915 50.9563 34.0727 51.332 33.6969C51.7077 33.3212 52.2266 33.0885 52.7997 33.0885H55.1328H58.3316H60.8731C61.9984 33.0885 62.9572 33.964 62.9979 35.0894C63.0396 36.27 62.0944 37.2406 60.9228 37.2406H58.3316L60.4864 37.7793C61.5855 38.0546 62.2999 39.1492 62.0537 40.2547C61.8372 41.228 60.9762 41.8816 60.0292 41.8816C59.8626 41.8816 59.6925 41.8608 59.524 41.8192L57.4787 41.3076L58.2284 41.8074C59.1808 42.443 59.4815 43.7332 58.8567 44.6929C58.4574 45.3058 57.792 45.6372 57.1138 45.6372C56.7182 45.6372 56.3189 45.524 55.965 45.2886L54.9011 44.5797L55.2876 45.1592C55.9259 46.1171 55.7059 47.4326 54.7517 48.0763C54.3959 48.3171 53.9921 48.4321 53.5919 48.4321C52.9219 48.4321 52.2627 48.108 51.8626 47.5077C51.3202 46.7544 50.4511 46.3162 49.5321 46.3162C49.4551 46.3162 49.3764 46.319 49.2985 46.3253C48.8684 46.3597 48.385 46.3887 47.8906 46.3977" stroke="#DF2222" stroke-width="1.5" stroke-miterlimit="10" stroke-linecap="round" stroke-linejoin="round"/>
<path d="M22.5989 33.0885H20.1263C19.0009 33.0885 18.0421 33.964 18.0013 35.0894C17.9597 36.27 18.9049 37.2406 20.0765 37.2406H22.6677L20.5129 37.7793C19.4137 38.0546 18.6994 39.1492 18.9456 40.2547C19.162 41.228 20.0231 41.8816 20.9701 41.8816C21.1367 41.8816 21.3069 41.8608 21.4753 41.8192L23.5206 41.3076L22.7709 41.8074C21.8184 42.443 21.5179 43.7332 22.1426 44.6929C22.5418 45.3058 23.2073 45.6372 23.8854 45.6372C24.2811 45.6372 24.6804 45.524 25.0344 45.2886L26.0982 44.5797L25.7116 45.1592C25.0733 46.1171 25.2933 47.4326 26.2476 48.0763C26.6034 48.3171 27.0072 48.4321 27.4074 48.4321C28.0774 48.4321 28.7365 48.108 29.1367 47.5077C29.679 46.7544 30.5482 46.3162 31.4672 46.3162C31.5441 46.3162 31.6229 46.319 31.7008 46.3253C32.1308 46.3597 32.6143 46.3887 33.1086 46.3977H33.1095" stroke="#DF2222" stroke-width="1.5" stroke-miterlimit="10" stroke-linecap="round" stroke-linejoin="round"/>
<path d="M25.3164 33.0885H25.8678H28.201C28.7741 33.0885 29.2929 33.3212 29.6686 33.697C30.0443 34.0727 30.277 34.5915 30.277 35.1646C30.277 35.6988 30.0751 36.185 29.7438 36.5526C28.9371 37.4498 28.8474 38.9401 29.5998 39.8835C29.6089 39.8944 29.6179 39.9052 29.627 39.917C30.5079 41.008 31.9149 41.3176 33.1109 40.9093" stroke="#DF2222" stroke-width="1.5" stroke-miterlimit="10" stroke-linecap="round" stroke-linejoin="round"/>
<path d="M47.8907 39.473V47.1823C47.8907 49.4359 46.0483 51.1905 43.7948 51.1923C42.2495 51.1932 40.9535 52.257 40.5969 53.6923C40.5858 53.7372 40.5463 53.769 40.5001 53.769C40.4538 53.769 40.4143 53.7372 40.4032 53.6923C40.0467 52.2561 38.7497 51.1932 37.2035 51.1923C34.9518 51.1914 33.1094 49.4377 33.1094 47.1851V39.4721C33.1094 38.163 34.1706 37.1017 35.4797 37.1017H45.5196C46.8291 37.1017 47.8907 38.1634 47.8907 39.473Z" stroke="#DF2222" stroke-width="1.5" stroke-miterlimit="10" stroke-linecap="round" stroke-linejoin="round"/>
<path d="M45.6285 46.6628V47.1825C45.6285 48.1603 44.8236 48.9281 43.7942 48.929C42.5737 48.929 41.4302 49.3247 40.5013 50.0073C39.5724 49.3247 38.428 48.929 37.2066 48.929C36.179 48.9281 35.375 48.1621 35.375 47.1852V39.4722C35.375 39.4134 35.4221 39.3654 35.4809 39.3654H45.5217C45.5805 39.3654 45.6285 39.4134 45.6285 39.4731V43.9467" stroke="#DF2222" stroke-width="1.5" stroke-miterlimit="10" stroke-linecap="round" stroke-linejoin="round"/>
<path d="M42.4362 17.4955H38.565C36.7225 17.4955 35.3645 19.2182 35.7947 21.0098L36.3081 23.1475H44.6931L45.2065 21.0098C45.6368 19.2182 44.2788 17.4955 42.4362 17.4955Z" stroke="#DF2222" stroke-width="1.5" stroke-miterlimit="10" stroke-linecap="round" stroke-linejoin="round"/>
<path d="M40.5 17.4956V15.4025" stroke="#DF2222" stroke-width="1.5" stroke-miterlimit="10" stroke-linecap="round" stroke-linejoin="round"/>
<path d="M38.5664 17.4955L39.477 23.1475" stroke="#DF2222" stroke-width="1.5" stroke-miterlimit="10" stroke-linecap="round" stroke-linejoin="round"/>
<path d="M42.438 17.4955L41.5273 23.1475" stroke="#DF2222" stroke-width="1.5" stroke-miterlimit="10" stroke-linecap="round" stroke-linejoin="round"/>
<path d="M45.7706 23.1475H35.2307" stroke="#DF2222" stroke-width="1.5" stroke-miterlimit="10" stroke-linecap="round" stroke-linejoin="round"/>
<path d="M56.3398 53.2563V50.0209" stroke="#DF2222" stroke-width="1.5" stroke-miterlimit="10" stroke-linecap="round" stroke-linejoin="round"/>
<path d="M55.2109 51.1855H57.4725" stroke="#DF2222" stroke-width="1.5" stroke-miterlimit="10" stroke-linecap="round" stroke-linejoin="round"/>
<path d="M25.8882 56.894L23.3359 52.6342" stroke="#DF2222" stroke-width="1.5" stroke-miterlimit="10" stroke-linecap="round" stroke-linejoin="round"/>
<path d="M23.9004 51.6382C23.9004 50.9969 23.3805 50.477 22.7392 50.477C22.0979 50.477 21.5781 50.9969 21.5781 51.6382C21.5781 52.2794 22.0979 52.7993 22.7392 52.7993C23.3805 52.7993 23.9004 52.2794 23.9004 51.6382Z" stroke="#DF2222" stroke-width="1.5" stroke-miterlimit="10" stroke-linecap="round" stroke-linejoin="round"/>
</svg>
