<svg width="41" height="41" viewBox="0 0 41 41" fill="none" xmlns="http://www.w3.org/2000/svg">
<circle cx="19.002" cy="20.5" r="18" fill="white"/>
<path d="M20.5053 0.89209H20.4955C9.68425 0.89209 0.892578 9.68621 0.892578 20.4999C0.892578 24.7891 2.27493 28.7646 4.62542 31.9926L2.18179 39.2769L9.71856 36.8676C12.819 38.9215 16.5176 40.1078 20.5053 40.1078C31.3166 40.1078 40.1083 31.3112 40.1083 20.4999C40.1083 9.68866 31.3166 0.89209 20.5053 0.89209ZM31.9146 28.5808C31.4416 29.9166 29.5641 31.0244 28.0666 31.348C27.0421 31.5661 25.7039 31.7401 21.1989 29.8725C15.4367 27.4852 11.7259 21.6298 11.4367 21.2499C11.1597 20.87 9.10826 18.1494 9.10826 15.3357C9.10826 12.522 10.5372 11.1519 11.1132 10.5637C11.5862 10.0808 12.3681 9.86023 13.1181 9.86023C13.3607 9.86023 13.5789 9.87248 13.7749 9.88229C14.3509 9.90679 14.6401 9.94111 15.02 10.8504C15.4931 11.9901 16.645 14.8039 16.7823 15.0931C16.922 15.3823 17.0617 15.7744 16.8656 16.1543C16.6818 16.5465 16.52 16.7205 16.2308 17.0539C15.9416 17.3872 15.6671 17.6421 15.3779 17.9999C15.1132 18.3112 14.8141 18.6445 15.1475 19.2205C15.4808 19.7842 16.6328 21.6641 18.3289 23.174C20.5176 25.1225 22.2921 25.745 22.9269 26.0097C23.3999 26.2058 23.9637 26.1592 24.3092 25.7916C24.748 25.3186 25.2896 24.5342 25.8411 23.7622C26.2333 23.2083 26.7284 23.1396 27.248 23.3357C27.7774 23.5195 30.5789 24.9043 31.1548 25.1911C31.7308 25.4803 32.1107 25.6176 32.2504 25.8602C32.3877 26.1029 32.3877 27.2426 31.9146 28.5808Z" fill="#4CAF50"/>
</svg>
