<svg width="49" height="59" viewBox="0 0 49 59" fill="none" xmlns="http://www.w3.org/2000/svg">
<path d="M24.1516 1.4043C35.7278 1.4043 46.2016 10.4843 46.2016 24.5273C46.2016 33.4945 39.4487 44.0408 25.9707 56.1945C24.9233 57.125 23.3522 57.125 22.3049 56.1945C8.85437 44.0408 2.10156 33.4945 2.10156 24.5273C2.10156 10.4843 12.5753 1.4043 24.1516 1.4043Z" fill="white"/>
<path d="M27.5587 29.2725V31.1406H34.9731V29.2725H33.5306L28.6227 16.8564L24.4844 24.1058L20.3504 16.8564L15.4383 29.2725H14V31.1406H21.4144V29.2725H20.3041L21.3849 26.1758L24.4844 31.2836L27.5881 26.1758L28.669 29.2725H27.5587Z" fill="#DF2222"/>
</svg>
