<svg width="50" height="50" viewBox="0 0 50 50" fill="none" xmlns="http://www.w3.org/2000/svg">
<path d="M29.6838 31.6205V33.7181H38.006V31.6205H36.3869L30.8781 17.6787L26.2331 25.8189L21.5928 17.6787L16.0793 31.6205H14.4648V33.7181H22.7871V31.6205H21.5409L22.7541 28.1433L26.2331 33.8787L29.7168 28.1433L30.93 31.6205H29.6838Z" fill="#CBD8E0"/>
<circle cx="25" cy="25" r="24" fill="white" stroke="#CBD8E0" stroke-width="2"/>
<g clip-path="url(#clip0_39_4629)">
<path d="M28.4646 13.1386C28.3545 13.0227 28.2036 12.9531 28.0473 12.9531H18.6849C16.9573 12.9531 15.5312 14.3735 15.5312 16.1009V33.8052C15.5312 35.5328 16.9573 36.9532 18.6849 36.9532H31.3921C33.1197 36.9532 34.5457 35.5328 34.5457 33.8052V19.7473C34.5457 19.5966 34.4761 19.4517 34.3776 19.3415L28.4646 13.1386ZM28.6327 14.9995L32.5921 19.156H30.0182C29.253 19.156 28.6327 18.5415 28.6327 17.7763V14.9995ZM31.3921 35.7937H18.6849C17.6009 35.7937 16.6907 34.8952 16.6907 33.8052V16.1009C16.6907 15.0169 17.595 14.1126 18.6849 14.1126H27.4732V17.7763C27.4732 19.1849 28.6096 20.3154 30.0182 20.3154H33.3863V33.8052C33.3863 34.8952 32.4819 35.7937 31.3921 35.7937Z" fill="#DF2222"/>
</g>
<defs>
<clipPath id="clip0_39_4629">
<rect width="24" height="24" fill="white" transform="translate(13 13)"/>
</clipPath>
</defs>
</svg>
