<svg width="16" height="16" viewBox="0 0 16 16" fill="none" xmlns="http://www.w3.org/2000/svg">
<path d="M5.03793 11.1887C4.76648 11.4602 4.76647 11.9003 5.03793 12.1718C5.30938 12.4432 5.7495 12.4432 6.02095 12.1718L9.66772 8.52501C9.9573 8.23542 9.9573 7.76592 9.66772 7.47633L6.02095 3.82957C5.7495 3.55811 5.30938 3.55811 5.03793 3.82957C4.76647 4.10102 4.76647 4.54114 5.03793 4.81259L7.53081 7.30548H1.07361C0.689665 7.30548 0.378418 7.61673 0.378418 8.00067C0.378418 8.38461 0.689665 8.69586 1.07361 8.69586H7.53085L5.03793 11.1887Z" fill="#003964" stroke="#003964" stroke-width="0.3"/>
<path fill-rule="evenodd" clip-rule="evenodd" d="M10.9407 1.76692C10.9407 1.35738 11.2727 1.02539 11.6822 1.02539H13.397C14.6256 1.02539 15.6216 2.02137 15.6216 3.24998V12.7508C15.6216 13.9794 14.6256 14.9754 13.397 14.9754H11.6822C11.2727 14.9754 10.9407 14.6434 10.9407 14.2339C10.9407 13.8243 11.2727 13.4923 11.6822 13.4923H13.397C13.8065 13.4923 14.1385 13.1603 14.1385 12.7508V3.24998C14.1385 2.84044 13.8065 2.50845 13.397 2.50845H11.6822C11.2727 2.50845 10.9407 2.17645 10.9407 1.76692Z" fill="#003964" stroke="#003964" stroke-width="0.3"/>
</svg>
