<svg width="20" height="20" viewBox="0 0 20 20" fill="none" xmlns="http://www.w3.org/2000/svg">
<path d="M7.54705 13.9851C7.20773 14.3244 7.20773 14.8746 7.54705 15.2139C7.88636 15.5532 8.43651 15.5532 8.77582 15.2139L13.3343 10.6554C13.6963 10.2935 13.6963 9.70657 13.3343 9.34459L8.77583 4.78614C8.43651 4.44682 7.88636 4.44682 7.54704 4.78614C7.20772 5.12546 7.20772 5.6756 7.54704 6.01492L10.6631 9.13103H2.59164C2.11172 9.13103 1.72266 9.52008 1.72266 10C1.72266 10.4799 2.11172 10.869 2.59164 10.869H10.6632L7.54705 13.9851Z" fill="white"/>
<path fill-rule="evenodd" clip-rule="evenodd" d="M12.4255 2.20816C12.4255 1.69624 12.8405 1.28125 13.3524 1.28125H15.4959C17.0317 1.28125 18.2767 2.52623 18.2767 4.06198V15.938C18.2767 17.4738 17.0317 18.7188 15.4959 18.7188H13.3524C12.8405 18.7188 12.4255 18.3038 12.4255 17.7918C12.4255 17.2799 12.8405 16.8649 13.3524 16.8649H15.4959C16.0078 16.8649 16.4228 16.4499 16.4228 15.938V4.06198C16.4228 3.55006 16.0078 3.13507 15.4959 3.13507H13.3524C12.8405 3.13507 12.4255 2.72008 12.4255 2.20816Z" fill="white"/>
</svg>
