<svg width="187" height="48" viewBox="0 0 187 48" fill="none" xmlns="http://www.w3.org/2000/svg">
<g clip-path="url(#clip0_2004_15589)">
<path d="M39.424 47.7931H3.8174C1.68912 47.7931 0 46.0705 0 43.9764V3.81669C0 1.72258 1.7229 0 3.8174 0H39.3902C41.5185 0 43.2076 1.72258 43.2076 3.81669V43.9426C43.2414 46.0705 41.5185 47.7931 39.424 47.7931Z" fill="#DF2222"/>
<path d="M21.9266 9.69353L19.9672 19.9277C20.5415 19.7926 21.1496 19.725 21.7577 19.725C26.4872 19.725 28.6831 23.1702 28.6831 27.1895C28.6831 29.824 27.8385 31.9857 26.3859 33.7083C24.2914 36.1402 20.9131 37.1872 16.9944 37.1872C15.1363 37.1872 12.9067 37.0521 11.7919 36.8495L16.116 14.4222H11.2852L12.2311 9.62598H21.9266V9.69353ZM17.5011 33.0665C17.8389 33.1341 18.2443 33.1341 18.6835 33.1341C21.6901 33.1341 23.3454 30.3307 23.3454 27.6624C23.3454 25.6696 22.7711 23.7444 20.5077 23.7444C20.0348 23.7444 19.5618 23.8119 19.2578 23.9132L17.5011 33.0665Z" fill="white"/>
<path d="M30.7422 34.0461C30.7422 32.1546 32.2286 30.2632 33.9853 30.2632C36.0122 30.2632 37.0257 31.648 37.0257 33.5057C37.0257 35.87 35.4379 37.3224 33.6137 37.3224C31.7557 37.3224 30.7422 35.9376 30.7422 34.0461Z" fill="white"/>
<path d="M54.7423 27.5192L54.0257 31.1522H50.9999L54.5034 15.1986H58.2458L61.3512 31.1522H58.3254L57.6486 27.5192H54.7423ZM57.3699 25.1104L56.8524 21.7538C56.6931 20.7666 56.4542 19.187 56.3348 18.1208H56.2552C56.0959 19.187 55.8571 20.8061 55.6978 21.7538L55.1006 25.1104H57.3699Z" fill="#003964"/>
<path d="M63.1444 15.4355C64.0999 15.2381 65.3739 15.1196 66.6878 15.1196C68.2006 15.1196 69.6339 15.3171 70.7885 16.2648C71.6643 16.9756 72.0227 18.0418 72.0227 19.1475C72.0227 20.5691 71.2662 21.9512 69.7135 22.6225V22.7015C71.5847 23.2149 72.5402 24.7549 72.5402 26.5319C72.5402 27.8351 72.1023 28.8618 71.3458 29.6516C70.3903 30.6783 68.758 31.2706 66.0508 31.2706C64.8564 31.2706 63.8611 31.1916 63.1444 31.0732V15.4355ZM66.2498 21.7538H66.9266C68.0414 21.7538 68.9173 20.806 68.9173 19.5029C68.9173 18.3577 68.3599 17.4495 67.0859 17.4495C66.7276 17.4495 66.4489 17.489 66.2498 17.5285V21.7538ZM66.2498 28.8618C66.4489 28.9013 66.6878 28.9013 66.9266 28.9013C68.2006 28.9013 69.2358 28.1115 69.2358 26.4925C69.2358 24.8734 68.121 24.0441 66.8868 24.0441H66.21V28.8618H66.2498Z" fill="#003964"/>
<path d="M76.0024 18.0814H73.1757V15.1987H82.0141V18.0814H79.1476V31.1918H76.0024V18.0814Z" fill="#003964"/>
<path d="M92.6434 22.8988C92.6434 28.9011 90.4935 31.3494 87.428 31.3494C83.7652 31.3494 82.3319 27.519 82.3319 23.1357C82.3319 18.7919 84.0837 15.001 87.6668 15.001C91.5685 15.001 92.6434 19.2658 92.6434 22.8988ZM85.5966 23.1752C85.5966 26.8082 86.2734 28.6642 87.5474 28.6642C88.901 28.6642 89.3788 26.2948 89.3788 23.0567C89.3788 20.253 88.9408 17.7257 87.5076 17.7257C86.3132 17.7257 85.5966 19.7397 85.5966 23.1752Z" fill="#003964"/>
<path d="M97.6983 15.1987V22.1488H97.9372L100.525 15.1987H103.949L100.286 22.5832C101.918 23.215 102.476 24.6761 102.954 26.6505C103.272 28.2301 103.591 29.7307 104.029 31.1918H100.923C100.525 30.0466 100.286 28.7434 100.047 27.4798C99.6491 25.6238 99.2112 24.3997 97.9372 24.3997H97.6983V31.1918H94.6327V15.1987H97.6983Z" fill="#003964"/>
<path d="M108.41 27.5193L107.694 31.1523H104.668L108.171 15.1987H111.914L115.059 31.1523H112.033L111.356 27.5193H108.41ZM110.998 25.1105L110.481 21.7539C110.321 20.7667 110.082 19.1871 109.963 18.1209H109.883C109.724 19.1871 109.485 20.8062 109.326 21.7539L108.729 25.1105H110.998Z" fill="#003964"/>
<path d="M126.245 15.1987V31.1523H123.1V17.884H119.915V31.1523H116.769V15.1987H126.245Z" fill="#003964"/>
<path d="M131.778 15.1987V18.7132C131.778 21.6354 131.579 24.3996 131.46 26.0581H131.5C131.937 24.676 132.774 22.5831 133.251 21.3589L135.6 15.1592H138.427V31.1127H135.68V27.5192C135.68 24.3206 135.799 21.9513 135.879 20.3322H135.839C135.441 21.7538 134.724 23.6888 134.207 25.0314L131.858 31.1127H129.031V15.1987H131.778Z" fill="#003964"/>
<path d="M143.006 18.0814H140.18V15.1987H149.018V18.0814H146.151V31.1918H143.006V18.0814Z" fill="#003964"/>
<path d="M152.125 27.5193L151.408 31.1523H148.383L151.886 15.1987H155.629L158.774 31.1523H155.708L155.031 27.5193H152.125ZM154.753 25.1105L154.235 21.7539C154.076 20.7667 153.837 19.1871 153.718 18.1209H153.638C153.479 19.1871 153.24 20.8062 153.081 21.7539L152.483 25.1105H154.753Z" fill="#003964"/>
<path d="M169.919 15.1987V31.1523H166.774V17.884H164.425V22.1093C164.425 25.7818 164.186 29.0594 162.155 30.6389C161.558 31.1128 160.802 31.4287 159.966 31.4287L159.289 28.7829C159.687 28.704 160.085 28.5065 160.364 28.2301C161.319 27.2429 161.518 25.4659 161.518 22.3857V15.1987H169.919Z" fill="#003964"/>
<path d="M179.436 12V19.1475C179.834 19.108 180.391 19.029 180.949 19.029C184.572 19.029 187 21.3589 187 24.8734C187 26.7294 186.403 28.1905 185.408 29.2172C184.094 30.5993 181.984 31.2706 179.197 31.2706C177.764 31.2706 176.569 31.1916 175.694 31.0337V15.1986H171.633V12H179.436ZM179.476 28.23C179.715 28.2695 180.033 28.3089 180.312 28.3089C182.143 28.3089 183.139 26.8873 183.139 25.1893C183.139 23.3333 182.143 22.0697 180.352 22.0697C180.073 22.0697 179.754 22.1092 179.476 22.1487V28.23Z" fill="#DF2222"/>
</g>
<defs>
<clipPath id="clip0_2004_15589">
<rect width="187" height="48" fill="white"/>
</clipPath>
</defs>
</svg>
