<svg width="56" height="67" viewBox="0 0 56 67" fill="none" xmlns="http://www.w3.org/2000/svg">
<path opacity="0.5" d="M27.5984 3.0957C40.0231 3.0957 51.2984 12.7583 51.2984 27.854C51.2984 32.564 49.5118 37.8227 45.7527 43.666C41.9963 49.5054 36.3215 55.8473 28.6813 62.6936C28.0527 63.2455 27.1134 63.2456 26.4847 62.6941C18.8602 55.8479 13.1933 49.506 9.44057 43.6666C5.68514 37.823 3.89844 32.5641 3.89844 27.854C3.89844 12.7583 15.1737 3.0957 27.5984 3.0957Z" stroke="#CBD8E0" stroke-width="3"/>
<path d="M31.4956 33.2431V35.3645H39.9692V33.2431H38.3207L32.7117 19.1436L27.9822 27.3759L23.2576 19.1436L17.6438 33.2431H16V35.3645H24.4736V33.2431H23.2047L24.4399 29.7266L27.9822 35.527L31.5293 29.7266L32.7645 33.2431H31.4956Z" fill="#DF2222"/>
</svg>
