<svg width="30" height="30" viewBox="0 0 30 30" fill="none" xmlns="http://www.w3.org/2000/svg">
<circle cx="15" cy="15" r="15" fill="#DF2222"/>
<path fill-rule="evenodd" clip-rule="evenodd" d="M10.6282 19.744C10.9994 19.4028 10.9994 18.8494 10.6282 18.5081L7.99994 16.374H12.9507H17.0493H22.0001L19.3718 18.5081C19.0006 18.8494 19.0006 19.4028 19.3718 19.744C19.743 20.0853 20.3449 20.0853 20.7161 19.744L24.703 16.1592C25.099 15.7951 25.099 15.2049 24.703 14.8408L20.7161 11.256C20.3449 10.9147 19.743 10.9147 19.3718 11.256C19.0006 11.5972 19.0006 12.1506 19.3718 12.4919L22 14.626H17.0493H12.9507H8L10.6282 12.4919C10.9994 12.1506 10.9994 11.5972 10.6282 11.256C10.257 10.9147 9.65512 10.9147 9.28391 11.256L5.297 14.8408C4.901 15.2049 4.901 15.7951 5.297 16.1592L9.28391 19.744C9.65512 20.0853 10.257 20.0853 10.6282 19.744Z" fill="white"/>
</svg>
