<svg width="40" height="40" viewBox="0 0 40 40" fill="none" xmlns="http://www.w3.org/2000/svg">
<path d="M0 20C0 8.9543 8.9543 0 20 0C31.0457 0 40 8.9543 40 20C40 31.0457 31.0457 40 20 40C8.9543 40 0 31.0457 0 20Z" fill="#003964"/>
<path d="M20.3789 26.5627C20.3789 26.5627 20.7639 26.5208 20.9611 26.3128C21.1416 26.1223 21.1354 25.7628 21.1354 25.7628C21.1354 25.7628 21.1114 24.0842 21.9054 23.8363C22.688 23.5925 23.6928 25.4597 24.7592 26.1776C25.5647 26.7205 26.1761 26.6017 26.1761 26.6017L29.0257 26.5627C29.0257 26.5627 30.5157 26.4726 29.8093 25.3224C29.7508 25.2282 29.3971 24.4713 27.6911 22.9166C25.9038 21.2891 26.1438 21.5523 28.2953 18.7367C29.6058 17.0222 30.1296 15.9755 29.9658 15.5279C29.8103 15.0998 28.8462 15.2135 28.8462 15.2135L25.6388 15.2329C25.6388 15.2329 25.4009 15.2012 25.2245 15.3046C25.0524 15.406 24.9407 15.6426 24.9407 15.6426C24.9407 15.6426 24.4336 16.969 23.7564 18.0976C22.328 20.4779 21.7573 20.6039 21.5235 20.4564C20.9799 20.1112 21.1156 19.0717 21.1156 18.3332C21.1156 16.0257 21.4724 15.0639 20.4217 14.815C20.0732 14.7321 19.8165 14.6778 18.9244 14.6686C17.7798 14.6573 16.8115 14.6727 16.2626 14.9359C15.8974 15.111 15.6157 15.5023 15.7879 15.5248C15.9997 15.5525 16.4797 15.6518 16.7343 15.9919C17.0629 16.4312 17.0515 17.4165 17.0515 17.4165C17.0515 17.4165 17.2403 20.1327 16.6101 20.4697C16.1781 20.7012 15.5855 20.229 14.3114 18.069C13.6593 16.9628 13.1668 15.7399 13.1668 15.7399C13.1668 15.7399 13.0719 15.5115 12.9018 15.3886C12.6962 15.2401 12.4093 15.194 12.4093 15.194L9.36149 15.2135C9.36149 15.2135 8.90343 15.2257 8.73544 15.4214C8.58623 15.5945 8.72397 15.954 8.72397 15.954C8.72397 15.954 11.1103 21.4345 13.8127 24.1968C16.2908 26.7287 19.1038 26.5627 19.1038 26.5627H20.3789Z" fill="white"/>
</svg>
