<svg width="22" height="22" viewBox="0 0 22 22" fill="none" xmlns="http://www.w3.org/2000/svg">
<g clip-path="url(#clip0_108_24465)">
<path fill-rule="evenodd" clip-rule="evenodd" d="M18.2954 3.67506C16.3659 1.74322 13.7997 0.678867 11.0658 0.677734C5.43249 0.677734 0.847759 5.26234 0.845493 10.8972C0.844738 12.6985 1.3153 14.4569 2.20971 16.0067L0.759766 21.3027L6.17773 19.8815C7.6706 20.6958 9.35129 21.125 11.0617 21.1255H11.066C16.6987 21.1255 21.2839 16.5405 21.2861 10.9054C21.2872 8.17444 20.2251 5.60676 18.2954 3.67506ZM11.0658 19.3995H11.0623C9.53811 19.3988 8.04322 18.9892 6.7388 18.2154L6.42875 18.0312L3.21364 18.8747L4.0718 15.74L3.86975 15.4186C3.0194 14.0661 2.57037 12.5029 2.57113 10.8978C2.57289 6.21428 6.38368 2.40387 11.0692 2.40387C13.3382 2.40462 15.4711 3.28934 17.0748 4.89501C18.6786 6.50067 19.5613 8.63492 19.5606 10.9048C19.5586 15.5887 15.748 19.3995 11.0658 19.3995ZM15.7254 13.0374C15.4701 12.9095 14.2145 12.2919 13.9803 12.2065C13.7464 12.1213 13.576 12.0789 13.4059 12.3344C13.2356 12.59 12.7463 13.1653 12.5972 13.3356C12.4482 13.506 12.2994 13.5274 12.044 13.3995C11.7886 13.2718 10.9658 13.002 9.99028 12.132C9.2312 11.4549 8.71872 10.6186 8.56967 10.3631C8.42088 10.1073 8.56841 9.9824 8.68171 9.84191C8.95815 9.49862 9.23497 9.13872 9.32007 8.96839C9.4053 8.79795 9.36262 8.64877 9.29867 8.521C9.23497 8.39322 8.72426 7.13626 8.51151 6.62479C8.30405 6.12704 8.0937 6.19427 7.93685 6.18646C7.78805 6.17903 7.61773 6.17752 7.44741 6.17752C7.27721 6.17752 7.00051 6.24135 6.76637 6.49715C6.53235 6.75282 5.87271 7.37054 5.87271 8.6275C5.87271 9.88446 6.78777 11.0987 6.91542 11.2692C7.04306 11.4396 8.7162 14.019 11.2778 15.125C11.8871 15.3884 12.3627 15.5454 12.7337 15.6631C13.3455 15.8574 13.902 15.83 14.3421 15.7643C14.8328 15.6909 15.8529 15.1465 16.0659 14.55C16.2786 13.9534 16.2786 13.4422 16.2147 13.3356C16.151 13.2291 15.9806 13.1653 15.7254 13.0374Z" fill="white"/>
</g>
<defs>
<clipPath id="clip0_108_24465">
<rect width="22" height="22" fill="white"/>
</clipPath>
</defs>
</svg>
