<svg width="22" height="13" viewBox="0 0 22 13" fill="none" xmlns="http://www.w3.org/2000/svg">
<path d="M12.3789 12.5627C12.3789 12.5627 12.7639 12.5208 12.9611 12.3128C13.1416 12.1223 13.1354 11.7628 13.1354 11.7628C13.1354 11.7628 13.1114 10.0842 13.9054 9.8363C14.688 9.59254 15.6928 11.4597 16.7592 12.1776C17.5647 12.7205 18.1761 12.6017 18.1761 12.6017L21.0257 12.5627C21.0257 12.5627 22.5157 12.4726 21.8093 11.3224C21.7508 11.2282 21.3971 10.4713 19.6911 8.91656C17.9038 7.28908 18.1438 7.55231 20.2953 4.73675C21.6058 3.02222 22.1296 1.97547 21.9658 1.52789C21.8103 1.09977 20.8462 1.21346 20.8462 1.21346L17.6388 1.23292C17.6388 1.23292 17.4009 1.20117 17.2245 1.30461C17.0524 1.40601 16.9407 1.6426 16.9407 1.6426C16.9407 1.6426 16.4336 2.96896 15.7564 4.09764C14.328 6.47791 13.7573 6.60389 13.5235 6.4564C12.9799 6.11124 13.1156 5.07166 13.1156 4.33321C13.1156 2.02566 13.4724 1.06392 12.4217 0.81504C12.0732 0.732079 11.8165 0.677796 10.9244 0.668578C9.77976 0.657312 8.81147 0.672675 8.26263 0.935897C7.89744 1.11104 7.61572 1.50229 7.78788 1.52482C7.99969 1.55247 8.47966 1.65182 8.73426 1.99186C9.06293 2.43125 9.05145 3.41654 9.05145 3.41654C9.05145 3.41654 9.24031 6.13275 8.61009 6.46971C8.17812 6.70119 7.58546 6.22902 6.31145 4.06896C5.65931 2.96281 5.16682 1.7399 5.16682 1.7399C5.16682 1.7399 5.07187 1.5115 4.9018 1.3886C4.69624 1.24009 4.4093 1.194 4.4093 1.194L1.36149 1.21346C1.36149 1.21346 0.903432 1.22575 0.735443 1.42137C0.586234 1.59447 0.723965 1.95396 0.723965 1.95396C0.723965 1.95396 3.11025 7.43452 5.8127 10.1968C8.2908 12.7287 11.1038 12.5627 11.1038 12.5627H12.3789Z" fill="white"/>
</svg>
