<svg width="40" height="40" viewBox="0 0 40 40" fill="none" xmlns="http://www.w3.org/2000/svg">
<path d="M20 40C31.0457 40 40 31.0457 40 20C40 8.9543 31.0457 0 20 0C8.9543 0 0 8.9543 0 20C0 31.0457 8.9543 40 20 40Z" fill="#003964"/>
<path d="M9.15308 18.567L28.4364 11.132C29.3314 10.8087 30.1131 11.3503 29.8231 12.7037L29.8247 12.702L26.5414 28.1703C26.2981 29.267 25.6464 29.5337 24.7347 29.017L19.7347 25.332L17.3231 27.6553C17.0564 27.922 16.8314 28.147 16.3147 28.147L16.6697 23.0587L25.9364 14.687C26.3397 14.332 25.8464 14.132 25.3147 14.4853L13.8631 21.6953L8.92641 20.1553C7.85475 19.8153 7.83141 19.0837 9.15308 18.567Z" fill="white"/>
</svg>
