<svg width="40" height="41" viewBox="0 0 40 41" fill="none" xmlns="http://www.w3.org/2000/svg">
<ellipse cx="19.9998" cy="20.5" rx="19.9998" ry="20" fill="#48C85F"/>
<path fill-rule="evenodd" clip-rule="evenodd" d="M20.0421 30.3281H20.038C18.3714 30.3276 16.7338 29.9114 15.2793 29.1218L10.0004 30.5L11.4131 25.3645C10.5417 23.8615 10.0831 22.1566 10.0839 20.4099C10.086 14.9456 14.5532 10.5 20.042 10.5C22.7059 10.5011 25.2062 11.5332 27.0863 13.4065C28.9664 15.2797 30.0012 17.7697 30.0002 20.4177C29.998 25.8807 25.5325 30.3259 20.0421 30.3281ZM15.5218 27.3245L15.8241 27.503C17.0948 28.2535 18.5515 28.6506 20.0367 28.6512H20.0401C24.602 28.6512 28.3149 24.9559 28.3167 20.4139C28.3176 18.2129 27.4575 16.1434 25.8948 14.5864C24.3322 13.0293 22.2541 12.1715 20.0433 12.1707C15.4779 12.1707 11.7649 15.8656 11.7631 20.4072C11.7625 21.9637 12.2001 23.4795 13.0286 24.791L13.2254 25.1026L12.3892 28.1423L15.5218 27.3245ZM25.0581 22.7743C24.9959 22.671 24.8301 22.609 24.5813 22.485C24.3324 22.3611 23.1091 21.7621 22.881 21.6794C22.653 21.5967 22.487 21.5555 22.3212 21.8033C22.1553 22.0512 21.6785 22.609 21.5333 22.7743C21.3882 22.9395 21.243 22.9602 20.9943 22.8362C20.7455 22.7123 19.9438 22.4508 18.9934 21.6072C18.2537 20.9505 17.7543 20.1396 17.6092 19.8917C17.464 19.6438 17.5937 19.5098 17.7182 19.3863C17.8302 19.2754 17.9671 19.097 18.0915 18.9525C18.2159 18.8079 18.2574 18.7046 18.3403 18.5394C18.4232 18.3741 18.3818 18.2295 18.3196 18.1056C18.2574 17.9816 17.7597 16.7627 17.5524 16.2669C17.3504 15.784 17.1453 15.8494 16.9926 15.8418C16.8476 15.8346 16.6815 15.833 16.5157 15.833C16.3498 15.833 16.0802 15.895 15.8522 16.1429C15.6241 16.3908 14.9813 16.9899 14.9813 18.2087C14.9813 19.4276 15.8729 20.6051 15.9973 20.7704C16.1217 20.9357 17.7518 23.4369 20.2479 24.5095C20.8415 24.7647 21.3049 24.917 21.6663 25.0311C22.2624 25.2197 22.8048 25.1931 23.2335 25.1293C23.7116 25.0582 24.7056 24.5303 24.9131 23.9519C25.1203 23.3733 25.1203 22.8775 25.0581 22.7743Z" fill="white"/>
</svg>
