<svg width="40" height="41" viewBox="0 0 40 41" fill="none" xmlns="http://www.w3.org/2000/svg">
<path d="M38.8567 20.5C38.8567 30.9145 30.4142 39.3571 19.9998 39.3571C9.58541 39.3571 1.14285 30.9145 1.14285 20.5C1.14285 10.0855 9.58541 1.64285 19.9998 1.64285C30.4142 1.64285 38.8567 10.0855 38.8567 20.5Z" fill="#039AE4" stroke="#039AE4" stroke-width="2.2857"/>
<path fill-rule="evenodd" clip-rule="evenodd" d="M27.9419 13.5209C28.2191 12.225 27.4718 11.7063 26.6161 12.0159L8.96883 19.1356C7.70523 19.6303 7.72754 20.331 8.75212 20.6566L12.8639 22.5607L14.579 27.5981C14.9498 28.5416 15.7361 28.0938 15.991 27.8385L18.4032 25.7642L23.0771 28.3523C23.9487 28.847 24.5717 28.5917 24.8044 27.5415L27.813 14.2269L27.9419 13.5209ZM26.5033 13.967L26.5965 13.4565L10.5979 19.9395L13.4596 21.358L22.1003 17.2141C22.2165 17.1584 22.3217 17.3078 22.2301 17.3984L16.6503 22.9164L15.991 26.0029L18.3315 24.0635L23.5458 27.0421L26.5033 13.967Z" fill="white"/>
</svg>
