<svg width="24" height="25" viewBox="0 0 24 25" fill="none" xmlns="http://www.w3.org/2000/svg">
<g clip-path="url(#clip0_108_24937)">
<path d="M23.9372 9.70577C23.7792 9.2198 23.3482 8.87574 22.8402 8.82978L15.9121 8.2008L13.1741 1.79054C12.972 1.31959 12.512 1.01562 12 1.01562C11.4881 1.01562 11.0279 1.31959 10.827 1.79054L8.08902 8.2008L1.15982 8.82978C0.651881 8.87666 0.221759 9.22072 0.0628208 9.70577C-0.0952019 10.1917 0.0507355 10.7248 0.434897 11.0617L5.67198 15.6539L4.12783 22.4549C4.01485 22.955 4.20895 23.4721 4.62387 23.772C4.8469 23.934 5.10893 24.015 5.37187 24.015C5.59783 24.015 5.82396 23.9549 6.02593 23.8341L12 20.262L17.973 23.8341C18.4112 24.0959 18.9622 24.0719 19.3762 23.772C19.7911 23.4721 19.9852 22.955 19.8722 22.4549L18.3281 15.6539L23.5652 11.0617C23.9491 10.7248 24.0953 10.1928 23.9372 9.70577Z" fill="#CBD8E0"/>
</g>
<defs>
<clipPath id="clip0_108_24937">
<rect width="24" height="24" fill="white" transform="translate(0 0.5)"/>
</clipPath>
</defs>
</svg>
