<svg width="60" height="60" viewBox="0 0 60 60" fill="none" xmlns="http://www.w3.org/2000/svg">
<rect x="1" y="1" width="58" height="58" rx="29" fill="#F5F9FC" stroke="#003964" stroke-width="2"/>
<path d="M40.8 20.96H19.2C18.8817 20.96 18.5765 21.0864 18.3515 21.3114C18.1264 21.5365 18 21.8417 18 22.16V37.04C18 37.3582 18.1264 37.6634 18.3515 37.8885C18.5765 38.1135 18.8817 38.24 19.2 38.24H24.72V41.12H22.8V42.08H37.2V41.12H35.28V38.24H40.8C41.1183 38.24 41.4235 38.1135 41.6485 37.8885C41.8736 37.6634 42 37.3582 42 37.04V22.16C42 21.8417 41.8736 21.5365 41.6485 21.3114C41.4235 21.0864 41.1183 20.96 40.8 20.96ZM34.32 41.12H25.68V38.24H34.32V41.12ZM41.04 37.04C41.04 37.1036 41.0147 37.1647 40.9697 37.2097C40.9247 37.2547 40.8637 37.28 40.8 37.28H19.2C19.1363 37.28 19.0753 37.2547 19.0303 37.2097C18.9853 37.1647 18.96 37.1036 18.96 37.04V34.4H41.04V37.04ZM41.04 33.44H18.96V22.16C18.96 22.0963 18.9853 22.0353 19.0303 21.9903C19.0753 21.9452 19.1363 21.92 19.2 21.92H40.8C40.8637 21.92 40.9247 21.9452 40.9697 21.9903C41.0147 22.0353 41.04 22.0963 41.04 22.16V33.44Z" fill="#003964" stroke="#003964" stroke-width="0.8"/>
</svg>
